<svg version="1.1" id="Layer_1" xmlns="http://www.w3.org/2000/svg" xmlns:xlink="http://www.w3.org/1999/xlink" x="0px" y="0px"
	 width="100%" viewBox="0 0 1024 1024" enable-background="new 0 0 1024 1024" xml:space="preserve">
<path fill="none" opacity="1.000000" stroke="none" 
	d="
M539.000000,1025.000000 
	C359.333344,1025.000000 180.166672,1025.000000 1.000000,1025.000000 
	C1.000000,683.666687 1.000000,342.333344 1.000000,1.000000 
	C342.333344,1.000000 683.666687,1.000000 1025.000000,1.000000 
	C1025.000000,342.333344 1025.000000,683.666687 1025.000000,1025.000000 
	C863.166687,1025.000000 701.333313,1025.000000 539.000000,1025.000000 
M552.478394,831.000000 
	C555.906189,831.000000 559.333984,831.000000 562.747009,831.000000 
	C562.747009,724.408752 562.747009,618.347961 562.747009,511.894073 
	C446.139679,511.894073 329.784668,511.894073 213.429657,511.894073 
	C213.191864,511.525116 212.954071,511.156158 212.716293,510.787231 
	C329.619232,393.882721 446.522156,276.978210 564.203430,159.295395 
	C562.105347,159.110153 561.484619,159.007431 560.863892,159.007339 
	C504.038910,158.999817 447.213898,158.976364 390.389221,159.107880 
	C388.565186,159.112091 386.322327,160.287277 384.982819,161.625427 
	C269.213989,277.277313 153.506866,392.990936 37.895123,508.799835 
	C36.285477,510.412201 35.127758,513.280762 35.119591,515.567871 
	C34.958862,560.560730 34.997814,605.554260 35.009956,650.547668 
	C35.010342,651.979370 35.157864,653.411011 35.256527,655.200562 
	C152.670914,655.200562 269.731079,655.200562 387.182007,655.200562 
	C387.182007,713.982727 387.182007,772.382935 387.182007,831.000000 
	C442.210144,831.000000 496.846527,831.000000 552.478394,831.000000 
M727.000061,248.500031 
	C755.651428,219.848465 784.302856,191.196884 814.000000,161.499588 
	C814.000000,164.681747 814.000000,166.139893 814.000000,167.598038 
	C814.000000,222.596237 814.034973,277.594543 813.876160,332.592285 
	C813.869568,334.861481 812.608093,337.684937 810.988342,339.310822 
	C754.412720,396.100342 697.708069,452.761414 641.128418,509.546997 
	C639.496155,511.185181 638.135620,513.969727 638.128967,516.224060 
	C637.964539,572.221741 637.997986,628.220032 638.013000,684.218201 
	C638.013306,685.470459 638.207031,686.722778 638.282288,687.633423 
	C756.134888,687.633423 873.537354,687.633423 990.810730,687.633423 
	C990.810730,629.006836 990.810730,570.746887 990.810730,511.806183 
	C932.194763,569.930969 874.013367,627.624878 815.000000,686.143799 
	C815.000000,682.776550 815.000000,680.946655 815.000000,679.116699 
	C815.000000,625.451782 815.040710,571.786743 814.916321,518.122131 
	C814.907227,514.196716 815.907715,511.452789 818.753174,508.616760 
	C875.176086,452.380066 931.465881,396.009857 987.859985,339.744141 
	C990.157959,337.451385 991.070007,335.209442 991.064880,331.990875 
	C990.974915,275.992828 991.000000,219.994629 991.000000,163.996460 
	C991.000000,162.399155 991.000000,160.801834 991.000000,159.000214 
	C989.608276,159.000214 988.796204,159.000214 987.984192,159.000214 
	C872.987976,159.000137 757.991638,159.029648 642.995605,158.893311 
	C638.333557,158.887772 637.939697,160.822998 637.945068,164.556320 
	C638.024597,220.221054 638.000000,275.885925 638.000000,331.550781 
	C638.000000,332.966431 638.000000,334.382050 638.000000,335.797699 
	C638.373169,335.991699 638.746338,336.185699 639.119446,336.379700 
	C668.246277,307.253143 697.373169,278.126556 727.000061,248.500031 
z"/>
<path fill="#FFFFFF" opacity="1.000000" stroke="none"
	d="
M551.980652,831.000000 
	C496.846527,831.000000 442.210144,831.000000 387.182007,831.000000 
	C387.182007,772.382935 387.182007,713.982727 387.182007,655.200562 
	C269.731079,655.200562 152.670914,655.200562 35.256527,655.200562 
	C35.157864,653.411011 35.010342,651.979370 35.009956,650.547668 
	C34.997814,605.554260 34.958862,560.560730 35.119591,515.567871 
	C35.127758,513.280762 36.285477,510.412201 37.895123,508.799835 
	C153.506866,392.990936 269.213989,277.277313 384.982819,161.625427 
	C386.322327,160.287277 388.565186,159.112091 390.389221,159.107880 
	C447.213898,158.976364 504.038910,158.999817 560.863892,159.007339 
	C561.484619,159.007431 562.105347,159.110153 564.203430,159.295395 
	C446.522156,276.978210 329.619232,393.882721 212.716293,510.787231 
	C212.954071,511.156158 213.191864,511.525116 213.429657,511.894073 
	C329.784668,511.894073 446.139679,511.894073 562.747009,511.894073 
	C562.747009,618.347961 562.747009,724.408752 562.747009,831.000000 
	C559.333984,831.000000 555.906189,831.000000 551.980652,831.000000 
z"/>
<path fill="#FFFFFF" opacity="1.000000" stroke="none"
	d="
M726.750000,248.750015 
	C697.373169,278.126556 668.246277,307.253143 639.119446,336.379700 
	C638.746338,336.185699 638.373169,335.991699 638.000000,335.797699 
	C638.000000,334.382050 638.000000,332.966431 638.000000,331.550781 
	C638.000000,275.885925 638.024597,220.221054 637.945068,164.556320 
	C637.939697,160.822998 638.333557,158.887772 642.995605,158.893311 
	C757.991638,159.029648 872.987976,159.000137 987.984192,159.000214 
	C988.796204,159.000214 989.608276,159.000214 991.000000,159.000214 
	C991.000000,160.801834 991.000000,162.399155 991.000000,163.996460 
	C991.000000,219.994629 990.974915,275.992828 991.064880,331.990875 
	C991.070007,335.209442 990.157959,337.451385 987.859985,339.744141 
	C931.465881,396.009857 875.176086,452.380066 818.753174,508.616760 
	C815.907715,511.452789 814.907227,514.196716 814.916321,518.122131 
	C815.040710,571.786743 815.000000,625.451782 815.000000,679.116699 
	C815.000000,680.946655 815.000000,682.776550 815.000000,686.143799 
	C874.013367,627.624878 932.194763,569.930969 990.810730,511.806183 
	C990.810730,570.746887 990.810730,629.006836 990.810730,687.633423 
	C873.537354,687.633423 756.134888,687.633423 638.282288,687.633423 
	C638.207031,686.722778 638.013306,685.470459 638.013000,684.218201 
	C637.997986,628.220032 637.964539,572.221741 638.128967,516.224060 
	C638.135620,513.969727 639.496155,511.185181 641.128418,509.546997 
	C697.708069,452.761414 754.412720,396.100342 810.988342,339.310822 
	C812.608093,337.684937 813.869568,334.861481 813.876160,332.592285 
	C814.034973,277.594543 814.000000,222.596237 814.000000,167.598038 
	C814.000000,166.139893 814.000000,164.681747 814.000000,161.499588 
	C784.302856,191.196884 755.651428,219.848465 726.750000,248.750015 
z"/>
</svg>