<svg version="1.1" id="Layer_1" xmlns="http://www.w3.org/2000/svg" xmlns:xlink="http://www.w3.org/1999/xlink" x="0px" y="0px"
	 width="100%" viewBox="0 0 96 96" enable-background="new 0 0 96 96" xml:space="preserve">
<path fill="none" opacity="1.000000" stroke="none"
	d="
M64.000000,97.000000
	C42.666672,97.000000 21.833342,97.000000 1.000008,97.000000
	C1.000006,65.000008 1.000006,33.000019 1.000003,1.000021
	C32.999985,1.000014 64.999969,1.000014 96.999969,1.000007
	C96.999977,32.999981 96.999977,64.999962 96.999985,96.999969
	C86.166664,97.000000 75.333336,97.000000 64.000000,97.000000
M46.036926,84.999924
	C47.192921,84.999924 48.348915,84.999924 49.291702,84.999924
	C48.846962,78.853271 44.706348,78.683876 39.976593,78.941765
	C35.113033,79.206963 30.223766,79.000626 25.345749,79.000626
	C25.192934,78.606750 25.040119,78.212883 24.887306,77.819008
	C34.902477,68.778923 44.917652,59.738831 54.925983,50.704914
	C49.284611,47.696438 45.282040,48.217113 40.916016,52.568901
	C35.255047,58.211403 29.657042,63.917652 23.950129,69.513031
	C22.634336,70.803108 20.986229,71.754250 18.999847,73.225075
	C18.999847,57.154343 18.918221,41.866928 19.044716,26.581234
	C19.088205,21.325981 21.174473,19.111589 26.335222,19.057148
	C41.488476,18.897301 56.645916,18.882824 71.798676,19.064732
	C77.028252,19.127512 78.796654,21.262966 78.971031,26.715857
	C79.114677,31.207787 79.268715,35.728416 78.927765,40.198925
	C78.561974,44.995056 79.248642,48.688477 85.000130,49.314621
	C85.000130,40.482399 85.023521,31.656822 84.992043,22.831444
	C84.970383,16.758986 81.311584,13.021743 75.311150,13.010962
	C57.824741,12.979544 40.338207,12.984201 22.851772,13.008410
	C16.781437,13.016813 13.022489,16.690596 13.011368,22.668507
	C12.978840,40.154915 12.983782,57.641445 13.008443,75.127876
	C13.017281,81.393936 16.729836,84.978859 23.147766,84.995575
	C30.475380,85.014671 37.803082,84.999748 46.036926,84.999924
M52.976345,57.531860
	C47.384274,64.890106 47.188423,73.302147 50.815121,80.959152
	C54.856693,89.492058 62.297932,93.379982 72.441376,93.214058
	C85.166824,93.005913 97.297882,79.845505 92.338982,64.064430
	C87.682381,49.245350 74.866913,46.415897 61.914379,50.259995
	C58.727776,51.205730 56.290459,54.676144 52.976345,57.531860
M54.965279,29.548176
	C51.682087,33.652992 52.157562,40.142525 55.989765,43.530914
	C58.741566,45.964024 65.801041,45.621536 68.564247,42.920876
	C71.547386,40.005257 72.082863,32.878216 69.535500,29.993837
	C66.153069,26.163914 59.654034,25.683945 54.965279,29.548176
z"/>
<path fill="#F9F9F9" opacity="1.000000" stroke="none"
	d="
M45.583836,84.999763
	C37.803082,84.999748 30.475380,85.014671 23.147766,84.995575
	C16.729836,84.978859 13.017281,81.393936 13.008443,75.127876
	C12.983782,57.641445 12.978840,40.154915 13.011368,22.668507
	C13.022489,16.690596 16.781437,13.016813 22.851772,13.008410
	C40.338207,12.984201 57.824741,12.979544 75.311150,13.010962
	C81.311584,13.021743 84.970383,16.758986 84.992043,22.831444
	C85.023521,31.656822 85.000130,40.482399 85.000130,49.314621
	C79.248642,48.688477 78.561974,44.995056 78.927765,40.198925
	C79.268715,35.728416 79.114677,31.207787 78.971031,26.715857
	C78.796654,21.262966 77.028252,19.127512 71.798676,19.064732
	C56.645916,18.882824 41.488476,18.897301 26.335222,19.057148
	C21.174473,19.111589 19.088205,21.325981 19.044716,26.581234
	C18.918221,41.866928 18.999847,57.154343 18.999847,73.225075
	C20.986229,71.754250 22.634336,70.803108 23.950129,69.513031
	C29.657042,63.917652 35.255047,58.211403 40.916016,52.568901
	C45.282040,48.217113 49.284611,47.696438 54.925983,50.704914
	C44.917652,59.738831 34.902477,68.778923 24.887306,77.819008
	C25.040119,78.212883 25.192934,78.606750 25.345749,79.000626
	C30.223766,79.000626 35.113033,79.206963 39.976593,78.941765
	C44.706348,78.683876 48.846962,78.853271 49.291702,84.999924
	C48.348915,84.999924 47.192921,84.999924 45.583836,84.999763
z"/>
<path fill="#F9F9F9" opacity="1.000000" stroke="none"
	d="
M53.242508,57.258881
	C56.290459,54.676144 58.727776,51.205730 61.914379,50.259995
	C74.866913,46.415897 87.682381,49.245350 92.338982,64.064430
	C97.297882,79.845505 85.166824,93.005913 72.441376,93.214058
	C62.297932,93.379982 54.856693,89.492058 50.815121,80.959152
	C47.188423,73.302147 47.384274,64.890106 53.242508,57.258881
M67.319099,68.994972
	C64.653160,68.996719 61.961376,68.783409 59.333199,69.099289
	C58.178188,69.238113 57.152714,70.454720 56.068420,71.181969
	C57.107410,71.787849 58.114494,72.838974 59.191376,72.916161
	C62.424831,73.147911 65.685524,72.999619 69.000221,72.999619
	C69.000221,76.698982 68.801575,79.715363 69.100716,82.681534
	C69.215897,83.823616 70.463425,84.851494 71.195023,85.931412
	C71.796555,84.888100 72.839691,83.876282 72.916771,82.795570
	C73.147285,79.563309 72.999634,76.304070 72.999634,72.999756
	C76.709450,72.999756 79.727303,73.199104 82.694550,72.898659
	C83.832939,72.783394 84.855873,71.527824 85.931419,70.791862
	C84.883736,70.194695 83.867134,69.159592 82.782532,69.082619
	C79.552063,68.853317 76.294884,69.000351 72.999733,69.000351
	C72.999733,65.279228 73.199783,62.260323 72.898010,59.292442
	C72.782616,58.157642 71.519066,57.139580 70.778740,56.068317
	C70.185936,57.120350 69.223541,58.121483 69.070305,59.234062
	C68.628044,62.445259 68.511864,65.701370 67.319099,68.994972
z"/>
<path fill="#F9F9F9" opacity="1.000000" stroke="none"
	d="
M55.259579,29.254721
	C59.654034,25.683945 66.153069,26.163914 69.535500,29.993837
	C72.082863,32.878216 71.547386,40.005257 68.564247,42.920876
	C65.801041,45.621536 58.741566,45.964024 55.989765,43.530914
	C52.157562,40.142525 51.682087,33.652992 55.259579,29.254721
z"/>
<path fill="#000000" opacity="1.000000" stroke="none"
	d="
M67.793365,68.967407
	C68.511864,65.701370 68.628044,62.445259 69.070305,59.234062
	C69.223541,58.121483 70.185936,57.120350 70.778740,56.068317
	C71.519066,57.139580 72.782616,58.157642 72.898010,59.292442
	C73.199783,62.260323 72.999733,65.279228 72.999733,69.000351
	C76.294884,69.000351 79.552063,68.853317 82.782532,69.082619
	C83.867134,69.159592 84.883736,70.194695 85.931419,70.791862
	C84.855873,71.527824 83.832939,72.783394 82.694550,72.898659
	C79.727303,73.199104 76.709450,72.999756 72.999634,72.999756
	C72.999634,76.304070 73.147285,79.563309 72.916771,82.795570
	C72.839691,83.876282 71.796555,84.888100 71.195023,85.931412
	C70.463425,84.851494 69.215897,83.823616 69.100716,82.681534
	C68.801575,79.715363 69.000221,76.698982 69.000221,72.999619
	C65.685524,72.999619 62.424831,73.147911 59.191376,72.916161
	C58.114494,72.838974 57.107410,71.787849 56.068420,71.181976
	C57.152714,70.454720 58.178188,69.238113 59.333199,69.099289
	C61.961376,68.783409 64.653160,68.996719 67.793365,68.967407
z"/>
</svg>
