<svg version="1.1" id="Layer_1" xmlns="http://www.w3.org/2000/svg" xmlns:xlink="http://www.w3.org/1999/xlink" x="0px" y="0px"
	 width="100%" viewBox="0 0 242 365" enable-background="new 0 0 242 365" xml:space="preserve">
<path fill="#DD7E2F" opacity="1.000000" stroke="none"
	d="
M127.000000,366.000000
	C124.958336,366.000000 122.916664,366.000000 120.162308,365.808838
	C81.716415,339.743347 44.009071,313.831085 6.201863,288.065369
	C3.109376,285.957825 1.706372,283.847778 1.901191,280.011383
	C2.221305,273.707642 1.896757,267.371185 1.900065,260.580017
	C1.972332,205.552902 1.995722,150.994293 1.996747,96.435677
	C1.996894,88.620903 1.888997,80.806122 1.890723,72.526535
	C1.966897,48.374485 1.983449,24.687243 2.000000,1.000000
	C81.687561,1.000000 161.375122,1.000000 241.531296,1.468657
	C242.055145,35.951485 242.110397,69.965652 242.104828,104.446259
	C242.029434,123.871346 241.989761,142.830002 242.005814,161.788635
	C242.033829,194.881561 242.096146,227.974442 242.084671,261.528412
	C242.016083,268.147797 241.814102,274.314270 242.074112,280.461212
	C242.217209,283.844086 241.059845,285.842743 238.273712,287.773682
	C202.449799,312.601410 166.711853,337.553223 130.974350,362.505432
	C129.536957,363.509033 128.319778,364.828003 127.000000,366.000000
M61.378956,162.732544
	C63.909702,163.514359 66.440445,164.296173 69.606499,165.520187
	C75.850090,166.348602 82.100624,167.129517 88.332382,168.038986
	C89.880203,168.264893 92.045242,168.428070 92.761772,169.442688
	C95.472176,173.280624 97.292549,177.027634 96.742165,182.530350
	C95.458618,195.363266 98.735519,207.526749 110.554146,214.496033
	C115.842422,217.614471 118.420898,221.431702 120.328812,226.546570
	C120.642799,227.388306 121.051720,228.194641 121.653358,229.550507
	C122.244484,228.707870 122.603188,228.342560 122.792824,227.904114
	C125.355148,221.980118 127.568054,215.873596 134.857330,213.858688
	C136.431274,213.423630 137.731491,211.645508 138.937805,210.290222
	C147.227478,200.976807 149.213013,189.786026 148.319962,177.825394
	C147.856628,171.620224 150.623703,168.442276 156.744583,167.927551
	C161.514191,167.526459 166.243164,166.642395 171.754456,165.994324
	C173.494904,165.598251 175.235367,165.202194 177.709122,164.830902
	C187.178223,161.405273 194.184860,155.747910 195.621201,144.371490
	C195.172745,143.409927 194.724274,142.448349 194.159149,140.822662
	C192.431320,139.772614 190.703491,138.722580 189.522263,138.004715
	C192.402557,133.573044 195.188278,129.286865 198.325531,124.427788
	C198.928909,123.032913 199.532288,121.638046 200.705460,119.701836
	C201.105591,115.954193 202.065857,112.163887 201.784317,108.468178
	C201.265579,101.658897 196.141693,98.728767 189.414444,101.056801
	C188.609390,101.420166 187.804337,101.783539 186.310043,102.242104
	C177.034897,109.153908 167.759766,116.065720 157.840927,122.665779
	C157.559464,122.283707 157.278000,121.901634 157.383743,120.661514
	C157.334167,117.754112 157.284576,114.846703 157.277939,111.097252
	C156.570129,108.216988 156.981781,105.951752 159.273605,103.547081
	C163.448410,99.166763 163.472733,93.335381 160.074188,89.059486
	C156.111557,84.073891 151.072235,83.126511 145.012283,85.828964
	C143.652313,86.435455 141.502304,86.472198 140.198669,85.814499
	C128.940491,80.134682 117.631157,79.300385 106.037750,84.702187
	C104.120239,85.595627 102.046021,86.152756 99.765862,86.268265
	C99.059891,85.846428 98.353920,85.424591 97.076508,84.514030
	C89.620842,83.304993 85.097130,85.960617 82.294106,93.473106
	C81.856606,97.876228 83.066750,101.582001 86.662872,104.417213
	C87.335678,104.947662 88.022614,106.066223 87.947838,106.840446
	C87.463852,111.851303 86.770576,116.841942 86.030006,122.766327
	C81.754868,119.178650 78.306702,115.611977 74.237366,113.020844
	C67.389214,108.660324 60.146534,104.919388 52.375557,100.425713
	C45.867619,99.894386 42.733135,102.853111 42.051113,110.894798
	C41.441505,122.151825 47.694286,130.153320 55.054436,137.621918
	C48.375973,140.983215 46.966148,144.037903 49.426765,149.788071
	C50.067238,151.284805 51.128948,152.601257 52.068245,154.683990
	C55.012501,157.194962 57.956757,159.705933 61.378956,162.732544
z"/>
<path fill="none" opacity="1.000000" stroke="none"
	d="
M1.844024,261.048523
	C1.896757,267.371185 2.221305,273.707642 1.901191,280.011383
	C1.706372,283.847778 3.109376,285.957825 6.201863,288.065369
	C44.009071,313.831085 81.716415,339.743347 119.724808,365.808838
	C80.410942,366.000000 40.821888,366.000000 1.000000,366.000000
	C1.000000,331.312775 1.000000,296.625061 1.209427,261.508240
	C1.418855,261.079163 1.844024,261.048523 1.844024,261.048523
z"/>
<path fill="none" opacity="1.000000" stroke="none"
	d="
M127.468658,366.000000
	C128.319778,364.828003 129.536957,363.509033 130.974350,362.505432
	C166.711853,337.553223 202.449799,312.601410 238.273712,287.773682
	C241.059845,285.842743 242.217209,283.844086 242.074112,280.461212
	C241.814102,274.314270 242.016083,268.147797 242.300873,261.540131
	C242.576523,261.090790 243.000000,261.000000 243.000000,261.000000
	C243.000000,295.930573 243.000000,330.861176 243.000000,366.000000
	C204.646027,366.000000 166.291672,366.000000 127.468658,366.000000
z"/>
<path fill="#DED3C8" opacity="1.000000" stroke="none"
	d="
M1.900065,260.580017
	C1.844024,261.048523 1.418855,261.079163 1.209427,261.039581
	C1.000000,198.645767 1.000000,136.291550 1.207718,73.460930
	C1.415435,72.984543 1.831102,72.991348 1.831102,72.991348
	C1.888997,80.806122 1.996894,88.620903 1.996747,96.435677
	C1.995722,150.994293 1.972332,205.552902 1.900065,260.580017
z"/>
<path fill="#D8C7B3" opacity="1.000000" stroke="none"
	d="
M243.000000,260.531342
	C243.000000,261.000000 242.576523,261.090790 242.360321,261.079071
	C242.096146,227.974442 242.033829,194.881561 242.005814,161.788635
	C241.989761,142.830002 242.029434,123.871346 242.313629,104.443069
	C242.583221,103.973442 243.000000,104.000000 243.000000,104.000000
	C243.000000,156.020889 243.000000,208.041794 243.000000,260.531342
z"/>
<path fill="#E0D2C1" opacity="1.000000" stroke="none"
	d="
M243.000000,103.531342
	C243.000000,104.000000 242.583221,103.973442 242.374420,103.976631
	C242.110397,69.965652 242.055145,35.951485 241.999954,1.468657
	C242.333344,2.326290 242.955536,3.652104 242.957733,4.978942
	C243.011719,37.673458 243.000000,70.368080 243.000000,103.531342
z"/>
<path fill="#E5DBCE" opacity="1.000000" stroke="none"
	d="
M1.890723,72.526535
	C1.831102,72.991348 1.415435,72.984543 1.207718,72.992271
	C1.000000,49.000000 1.000000,25.000000 1.500000,1.000000
	C1.983449,24.687243 1.966897,48.374485 1.890723,72.526535
z"/>
<path fill="#FCF6F1" opacity="1.000000" stroke="none"
	d="
M158.484619,122.977524
	C167.759766,116.065720 177.034897,109.153908 186.747940,102.502060
	C187.807602,103.889351 188.429367,105.016678 188.891968,106.442902
	C171.045364,115.977142 156.982254,129.359329 145.725067,143.886490
	C148.707504,150.350220 151.394745,156.174149 154.644745,163.217728
	C159.738541,162.643951 166.364761,161.897552 172.899902,161.465134
	C172.202621,163.177063 171.596405,164.575027 170.990204,165.972977
	C166.243164,166.642395 161.514191,167.526459 156.744583,167.927551
	C150.623703,168.442276 147.856628,171.620224 148.319962,177.825394
	C149.213013,189.786026 147.227478,200.976807 138.937805,210.290222
	C137.731491,211.645508 136.431274,213.423630 134.857330,213.858688
	C127.568054,215.873596 125.355148,221.980118 122.792824,227.904114
	C122.603188,228.342560 122.244484,228.707870 121.653358,229.550507
	C121.051720,228.194641 120.642799,227.388306 120.328812,226.546570
	C118.420898,221.431702 115.842422,217.614471 110.554146,214.496033
	C98.735519,207.526749 95.458618,195.363266 96.742165,182.530350
	C97.292549,177.027634 95.472176,173.280624 92.761772,169.442688
	C92.045242,168.428070 89.880203,168.264893 88.332382,168.038986
	C82.100624,167.129517 75.850090,166.348602 69.307358,164.925919
	C69.409683,163.187759 69.811157,162.043869 70.624161,160.878448
	C77.651176,161.703537 84.266670,162.550171 91.304710,163.450882
	C91.387650,155.665298 93.491142,149.775909 98.931755,145.421738
	C99.180023,145.223068 98.990318,144.477127 99.114014,143.692474
	C99.815155,142.296631 100.406898,141.194382 101.347794,140.108063
	C103.990639,141.445435 106.367142,142.646362 108.542122,144.140625
	C109.584915,144.857056 110.246384,146.128525 111.080551,147.148636
	C109.732750,147.734131 108.413391,148.400589 107.030556,148.886353
	C104.917046,149.628738 102.233131,149.661499 100.718369,151.025192
	C95.913918,155.350510 95.129669,163.943939 98.531364,169.408234
	C101.918510,174.849167 107.671593,176.865555 113.024620,173.564453
	C110.880257,172.113678 109.167023,170.799911 107.311546,169.733688
	C104.121765,167.900742 102.166527,165.457031 103.052124,161.612610
	C103.238045,160.805573 104.207954,159.598846 104.812904,159.601028
	C105.783516,159.604523 107.612480,160.514221 107.586479,160.952393
	C107.329239,165.286987 111.136055,165.749054 113.543343,167.451935
	C116.814842,169.766129 118.162224,172.763718 116.712631,176.517761
	C115.290054,180.201874 111.962112,180.945877 108.463394,180.722900
	C106.393700,180.591003 104.355064,179.971588 102.302467,179.571381
	C101.947227,179.979538 101.591988,180.387695 101.236755,180.795837
	C102.198723,181.900375 102.943008,183.489059 104.156311,184.034592
	C116.383324,189.532074 128.710236,189.005157 140.896072,183.936386
	C142.212524,183.388809 142.877029,181.273911 143.843948,179.886047
	C140.660339,179.517532 138.624954,180.266785 136.534592,180.482071
	C132.762344,180.870575 129.007538,180.452789 127.141319,176.541428
	C125.479973,173.059464 127.602509,169.511505 131.727829,166.735321
	C133.532166,165.521072 134.592072,163.225769 136.068665,161.488174
	C136.759232,160.675537 137.650208,159.435364 138.425400,159.453537
	C139.271896,159.473404 140.576019,160.582230 140.834351,161.464279
	C141.877365,165.025269 140.262070,167.444748 137.137894,169.249069
	C135.071228,170.442612 133.258194,172.075348 130.668610,174.005676
	C138.107651,176.437088 143.640594,173.647842 146.252823,167.339569
	C149.454407,159.608032 146.632690,152.094315 139.013458,147.669510
	C139.013260,145.615753 139.020126,143.973602 139.324921,142.152542
	C143.353104,137.628433 147.083359,133.283218 151.151047,128.863022
	C153.385727,126.926216 155.282974,125.064392 157.348373,123.178719
	C157.839417,123.096855 158.162109,123.037743 158.484619,122.977524
M126.956047,200.890045
	C138.694351,198.881027 141.067764,197.658951 141.561691,192.997543
	C128.602661,197.490799 115.659386,197.206070 102.339966,193.710236
	C103.357361,195.655090 104.581406,197.687744 106.140480,197.989517
	C112.725777,199.264175 119.410851,200.023376 126.956047,200.890045
M117.185753,209.646988
	C115.428001,209.440872 113.670258,209.234756 110.532967,208.866882
	C119.440308,214.235916 127.265465,214.043625 130.875580,209.759338
	C126.896278,209.759338 122.465492,209.759338 117.185753,209.646988
z"/>
<path fill="#FDF6F2" opacity="1.000000" stroke="none"
	d="
M100.998642,140.092133
	C100.406898,141.194382 99.815155,142.296631 98.808197,143.554489
	C96.783836,142.046875 95.099327,140.449570 93.577454,138.709991
	C81.448647,124.846069 68.312744,112.261459 51.078041,104.630966
	C51.784073,103.206375 52.426945,102.062103 53.069817,100.917824
	C60.146534,104.919388 67.389214,108.660324 74.237366,113.020844
	C78.306702,115.611977 81.754868,119.178650 86.030006,122.766327
	C86.770576,116.841942 87.463852,111.851303 87.947838,106.840446
	C88.022614,106.066223 87.335678,104.947662 86.662872,104.417213
	C83.066750,101.582001 81.856606,97.876228 82.931755,93.208046
	C84.757759,93.370110 85.946106,93.797234 87.152397,94.602180
	C88.090942,96.912849 88.504990,99.708237 90.033531,100.605972
	C93.647575,102.728531 94.009171,105.129799 92.926384,108.799149
	C89.393394,120.771774 92.798325,131.081085 100.998642,140.092133
z"/>
<path fill="#FCF4EF" opacity="1.000000" stroke="none"
	d="
M51.997185,154.000519
	C51.128948,152.601257 50.067238,151.284805 49.426765,149.788071
	C46.966148,144.037903 48.375973,140.983215 55.054436,137.621918
	C47.694286,130.153320 41.441505,122.151825 42.449402,110.354385
	C44.311203,109.227219 45.774719,108.640472 47.207573,108.477318
	C46.616032,123.277061 55.223587,132.172974 66.048897,139.295502
	C72.702286,143.673096 80.043419,147.005386 86.990677,151.175964
	C86.584595,152.765106 86.263573,153.985321 85.566437,155.159058
	C76.656693,151.702026 68.144012,148.237274 59.572514,144.924713
	C57.768383,144.227478 55.748333,144.088943 53.827774,143.692978
	C53.482792,144.138718 53.137810,144.584457 52.792828,145.030212
	C54.383099,147.946655 55.973370,150.863083 57.100716,153.821655
	C55.090923,153.909378 53.544052,153.954941 51.997185,154.000519
z"/>
<path fill="#FDF6F2" opacity="1.000000" stroke="none"
	d="
M100.044228,86.865311
	C102.046021,86.152756 104.120239,85.595627 106.037750,84.702187
	C117.631157,79.300385 128.940491,80.134682 140.198669,85.814499
	C141.502304,86.472198 143.652313,86.435455 145.012283,85.828964
	C151.072235,83.126511 156.111557,84.073891 160.074188,89.059486
	C163.472733,93.335381 163.448410,99.166763 159.273605,103.547081
	C156.981781,105.951752 156.570129,108.216988 156.810349,111.529709
	C155.153015,111.978523 153.963257,111.994881 152.606308,111.688065
	C150.873978,107.277214 150.140839,103.779007 154.915100,100.730690
	C157.900711,98.824394 158.408264,95.071953 155.810623,91.930084
	C153.309494,88.904930 150.185898,88.294960 147.084732,90.930771
	C144.151520,93.423859 141.800751,92.892967 138.644897,91.010246
	C127.355057,84.274925 115.931068,84.536530 104.385803,90.876984
	C102.806374,91.744377 100.081909,90.526779 98.056564,89.983696
	C98.831772,88.750351 99.437996,87.807831 100.044228,86.865311
z"/>
<path fill="#FCF4EF" opacity="1.000000" stroke="none"
	d="
M197.974014,125.000702
	C195.188278,129.286865 192.402557,133.573044 189.522263,138.004715
	C190.703491,138.722580 192.431320,139.772614 194.057556,141.462524
	C192.818466,143.056808 191.680969,144.011230 190.303558,144.615891
	C188.345078,144.419876 186.479202,144.192688 184.932480,144.790802
	C176.573929,148.023071 168.327164,151.545517 159.955338,154.741287
	C158.566452,155.271454 156.750687,154.683365 155.132202,154.612061
	C155.993011,153.073410 156.475601,150.929184 157.786179,150.110641
	C161.577484,147.742691 165.743225,145.984436 169.687592,143.849411
	C180.710526,137.882858 191.285477,131.419144 195.906738,119.148758
	C196.609695,121.372307 197.291855,123.186508 197.974014,125.000702
z"/>
<path fill="#F3DED6" opacity="1.000000" stroke="none"
	d="
M195.633636,145.053391
	C194.184860,155.747910 187.178223,161.405273 177.448914,164.506744
	C179.118896,161.785660 181.049103,159.388718 183.171646,156.732101
	C184.919617,154.984512 186.475235,153.496613 188.385956,151.973511
	C191.038589,149.643356 193.336121,147.348373 195.633636,145.053391
z"/>
<path fill="#F3DED6" opacity="1.000000" stroke="none"
	d="
M190.080658,101.213272
	C196.141693,98.728767 201.265579,101.658897 201.784317,108.468178
	C202.065857,112.163887 201.105591,115.954193 200.394348,119.536644
	C199.103989,116.256248 198.124725,113.141037 197.010651,109.687454
	C196.246826,108.054375 195.617828,106.759666 194.699570,105.367203
	C192.967087,103.917404 191.523865,102.565338 190.080658,101.213272
z"/>
<path fill="#FCF4EF" opacity="1.000000" stroke="none"
	d="
M152.773529,112.011246
	C153.963257,111.994881 155.153015,111.978523 156.788879,111.950729
	C157.284576,114.846703 157.334167,117.754112 157.181580,121.301559
	C157.046356,122.361916 157.113297,122.782242 157.180222,123.202560
	C155.282974,125.064392 153.385727,126.926216 151.194580,128.459442
	C151.524948,122.757637 152.149231,117.384438 152.773529,112.011246
z"/>
<path fill="#F5E4DE" opacity="1.000000" stroke="none"
	d="
M87.134460,94.224365
	C85.946106,93.797234 84.757759,93.370110 83.181061,92.921127
	C85.097130,85.960617 89.620842,83.304993 97.107666,85.078110
	C96.425980,86.761528 95.713142,87.880875 94.634277,89.059830
	C91.890320,90.821075 89.512390,92.522720 87.134460,94.224365
z"/>
<path fill="#F5E4DE" opacity="1.000000" stroke="none"
	d="
M47.238235,108.053726
	C45.774719,108.640472 44.311203,109.227219 42.526810,109.919525
	C42.733135,102.853111 45.867619,99.894386 52.722687,100.671768
	C52.426945,102.062103 51.784073,103.206375 50.774082,104.728310
	C49.350719,106.088547 48.294476,107.071136 47.238235,108.053726
z"/>
<path fill="#FAF1EC" opacity="1.000000" stroke="none"
	d="
M197.145462,110.025826
	C198.124725,113.141037 199.103989,116.256248 200.109467,119.807312
	C199.532288,121.638046 198.928909,123.032913 198.149780,124.714249
	C197.291855,123.186508 196.609695,121.372307 195.928711,118.751831
	C196.335098,115.305634 196.740280,112.665733 197.145462,110.025826
z"/>
<path fill="#FAF1EC" opacity="1.000000" stroke="none"
	d="
M70.212631,160.899979
	C69.811157,162.043869 69.409683,163.187759 68.989700,164.704834
	C66.440445,164.296173 63.909702,163.514359 61.126205,162.119675
	C60.993557,159.964523 61.113655,158.422241 61.563972,156.985382
	C64.667007,158.360535 67.439819,159.630264 70.212631,160.899979
z"/>
<path fill="#F5E4DE" opacity="1.000000" stroke="none"
	d="
M61.233757,156.879959
	C61.113655,158.422241 60.993557,159.964523 60.887238,161.861847
	C57.956757,159.705933 55.012501,157.194962 52.032715,154.342255
	C53.544052,153.954941 55.090923,153.909378 57.367760,153.958084
	C59.143066,154.994904 60.188412,155.937424 61.233757,156.879959
z"/>
<path fill="#F9EEE7" opacity="1.000000" stroke="none"
	d="
M182.979294,156.991776
	C181.049103,159.388718 179.118896,161.785660 177.082245,164.494354
	C175.235367,165.202194 173.494904,165.598251 171.372330,165.983643
	C171.596405,164.575027 172.202621,163.177063 173.227875,161.297531
	C176.757706,159.541229 179.868500,158.266495 182.979294,156.991776
z"/>
<path fill="#F9EEE7" opacity="1.000000" stroke="none"
	d="
M195.627411,144.712433
	C193.336121,147.348373 191.038589,149.643356 188.498932,151.622681
	C189.019043,149.193237 189.781265,147.079437 190.543488,144.965637
	C191.680969,144.011230 192.818466,143.056808 194.115875,141.794586
	C194.724274,142.448349 195.172745,143.409927 195.627411,144.712433
z"/>
<path fill="#FCF4EF" opacity="1.000000" stroke="none"
	d="
M189.747559,101.135040
	C191.523865,102.565338 192.967087,103.917404 194.381317,105.198952
	C192.585266,105.466957 190.818192,105.805481 189.051117,106.144005
	C188.429367,105.016678 187.807602,103.889351 187.092560,102.454468
	C187.804337,101.783539 188.609390,101.420166 189.747559,101.135040
z"/>
<path fill="#F9EEE7" opacity="1.000000" stroke="none"
	d="
M95.000305,89.000221
	C95.713142,87.880875 96.425980,86.761528 97.393387,85.322464
	C98.353920,85.424591 99.059891,85.846428 99.905045,86.566788
	C99.437996,87.807831 98.831772,88.750351 97.743126,89.917221
	C96.507240,89.761116 95.753769,89.380669 95.000305,89.000221
z"/>
<path fill="#F9EEE7" opacity="1.000000" stroke="none"
	d="
M157.348373,123.178719
	C157.113297,122.782242 157.046356,122.361916 156.987976,121.730583
	C157.278000,121.901634 157.559464,122.283707 158.162781,122.821655
	C158.162109,123.037743 157.839417,123.096855 157.348373,123.178719
z"/>
<path fill="#DD8031" opacity="1.000000" stroke="none"
	d="
M94.634277,89.059830
	C95.753769,89.380669 96.507240,89.761116 97.574142,90.208038
	C100.081909,90.526779 102.806374,91.744377 104.385803,90.876984
	C115.931068,84.536530 127.355057,84.274925 138.644897,91.010246
	C141.800751,92.892967 144.151520,93.423859 147.084732,90.930771
	C150.185898,88.294960 153.309494,88.904930 155.810623,91.930084
	C158.408264,95.071953 157.900711,98.824394 154.915100,100.730690
	C150.140839,103.779007 150.873978,107.277214 152.606323,111.688065
	C152.149231,117.384438 151.524948,122.757637 150.857147,128.534424
	C147.083359,133.283218 143.353104,137.628433 139.004028,142.271881
	C137.214340,143.156540 135.786011,143.501038 134.944397,144.396790
	C134.086609,145.309738 133.805862,146.764832 133.272461,147.982559
	C134.425491,148.296280 135.566727,148.780899 136.735855,148.861710
	C137.475876,148.912842 138.257523,148.361969 139.020508,148.081116
	C146.632690,152.094315 149.454407,159.608032 146.252823,167.339569
	C143.640594,173.647842 138.107651,176.437088 130.668610,174.005676
	C133.258194,172.075348 135.071228,170.442612 137.137894,169.249069
	C140.262070,167.444748 141.877365,165.025269 140.834351,161.464279
	C140.576019,160.582230 139.271896,159.473404 138.425400,159.453537
	C137.650208,159.435364 136.759232,160.675537 136.068665,161.488174
	C134.592072,163.225769 133.532166,165.521072 131.727829,166.735321
	C127.602509,169.511505 125.479973,173.059464 127.141319,176.541428
	C129.007538,180.452789 132.762344,180.870575 136.534592,180.482071
	C138.624954,180.266785 140.660339,179.517532 143.843948,179.886047
	C142.877029,181.273911 142.212524,183.388809 140.896072,183.936386
	C128.710236,189.005157 116.383324,189.532074 104.156311,184.034592
	C102.943008,183.489059 102.198723,181.900375 101.236755,180.795837
	C101.591988,180.387695 101.947227,179.979538 102.302467,179.571381
	C104.355064,179.971588 106.393700,180.591003 108.463394,180.722900
	C111.962112,180.945877 115.290054,180.201874 116.712631,176.517761
	C118.162224,172.763718 116.814842,169.766129 113.543343,167.451935
	C111.136055,165.749054 107.329239,165.286987 107.586479,160.952393
	C107.612480,160.514221 105.783516,159.604523 104.812904,159.601028
	C104.207954,159.598846 103.238045,160.805573 103.052124,161.612610
	C102.166527,165.457031 104.121765,167.900742 107.311546,169.733688
	C109.167023,170.799911 110.880257,172.113678 113.024620,173.564453
	C107.671593,176.865555 101.918510,174.849167 98.531364,169.408234
	C95.129669,163.943939 95.913918,155.350510 100.718369,151.025192
	C102.233131,149.661499 104.917046,149.628738 107.030556,148.886353
	C108.413391,148.400589 109.732750,147.734131 111.080551,147.148636
	C110.246384,146.128525 109.584915,144.857056 108.542122,144.140625
	C106.367142,142.646362 103.990639,141.445435 101.347794,140.108063
	C92.798325,131.081085 89.393394,120.771774 92.926384,108.799149
	C94.009171,105.129799 93.647575,102.728531 90.033531,100.605972
	C88.504990,99.708237 88.090942,96.912849 87.152397,94.602180
	C89.512390,92.522720 91.890320,90.821075 94.634277,89.059830
M116.846268,116.155571
	C112.822418,119.808891 116.008713,122.948349 117.859879,125.951553
	C111.127777,131.668457 106.722557,131.266876 99.836380,124.892006
	C98.854820,123.983337 97.101372,123.908485 95.705162,123.447723
	C95.882378,125.055763 95.460945,127.507736 96.337677,128.129654
	C100.760208,131.266815 105.520966,133.927155 110.163048,136.754807
	C111.986061,139.202911 113.217651,142.870255 113.726608,146.635269
	C114.297577,150.859100 116.358116,152.049103 120.426201,151.946274
	C129.078308,151.727570 129.078262,151.916641 130.919601,143.264206
	C131.230789,141.801880 131.794312,140.367416 131.907745,138.894409
	C132.122025,136.111588 133.468460,135.388855 136.186005,134.612213
	C139.984741,133.526596 143.581741,131.243195 146.788757,128.837326
	C147.961716,127.957382 147.773483,125.262985 148.206223,123.396324
	C146.598099,124.106087 144.598236,124.428238 143.447815,125.590889
	C137.616760,131.483963 130.785019,131.483154 127.023705,126.477776
	C127.582359,122.881416 129.115952,119.599045 128.071289,117.946663
	C126.946243,116.167099 123.448097,115.753235 120.896980,115.076477
	C119.884346,114.807846 118.634300,115.434113 116.846268,116.155571
M117.387627,107.472618
	C120.229568,106.744026 120.136177,105.154221 118.754433,103.068115
	C114.976814,97.364799 105.343376,97.359840 101.865448,103.196136
	C101.337387,104.082268 101.745247,105.526123 101.720200,106.712013
	C102.909027,106.707970 104.681648,107.210953 105.194801,106.620094
	C109.498840,101.664383 113.062943,104.545219 117.387627,107.472618
M136.885132,105.272255
	C138.117340,106.180550 139.349533,107.088852 140.581741,107.997154
	C141.120209,107.702713 141.658676,107.408279 142.197144,107.113838
	C141.715073,105.352585 141.732178,103.167221 140.661041,101.906448
	C136.845398,97.415329 128.940872,97.831734 125.410461,102.640785
	C124.678093,103.638397 125.013329,105.419754 124.856552,106.839897
	C126.177864,106.633591 128.052292,106.905853 128.720062,106.134087
	C131.011337,103.485939 133.413055,103.392357 136.885132,105.272255
z"/>
<path fill="#DD8031" opacity="1.000000" stroke="none"
	d="
M61.563980,156.985382
	C60.188412,155.937424 59.143066,154.994904 57.830681,153.915955
	C55.973370,150.863083 54.383099,147.946655 52.792828,145.030212
	C53.137810,144.584457 53.482792,144.138718 53.827774,143.692978
	C55.748333,144.088943 57.768383,144.227478 59.572514,144.924713
	C68.144012,148.237274 76.656693,151.702026 85.807281,155.381958
	C90.143875,154.507599 90.392929,152.897125 87.075745,150.807053
	C80.043419,147.005386 72.702286,143.673096 66.048897,139.295502
	C55.223587,132.172974 46.616032,123.277061 47.207573,108.477318
	C48.294476,107.071136 49.350719,106.088547 50.710922,105.008621
	C68.312744,112.261459 81.448647,124.846069 93.577454,138.709991
	C95.099327,140.449570 96.783836,142.046875 98.698799,143.848083
	C98.990318,144.477127 99.180023,145.223068 98.931755,145.421738
	C93.491142,149.775909 91.387650,155.665298 91.304710,163.450882
	C84.266670,162.550171 77.651176,161.703537 70.624161,160.878448
	C67.439819,159.630264 64.667007,158.360535 61.563980,156.985382
z"/>
<path fill="#DD7F30" opacity="1.000000" stroke="none"
	d="
M188.891968,106.442902
	C190.818192,105.805481 192.585266,105.466957 194.670593,105.296692
	C195.617828,106.759666 196.246826,108.054375 197.010651,109.687454
	C196.740280,112.665733 196.335098,115.305634 195.907928,118.342468
	C191.285477,131.419144 180.710526,137.882858 169.687592,143.849411
	C165.743225,145.984436 161.577484,147.742691 157.786179,150.110641
	C156.475601,150.929184 155.993011,153.073410 155.132202,154.612061
	C156.750687,154.683365 158.566452,155.271454 159.955338,154.741287
	C168.327164,151.545517 176.573929,148.023071 184.932480,144.790802
	C186.479202,144.192688 188.345078,144.419876 190.303558,144.615891
	C189.781265,147.079437 189.019043,149.193237 188.143829,151.657867
	C186.475235,153.496613 184.919617,154.984512 183.171646,156.732101
	C179.868500,158.266495 176.757706,159.541229 173.318939,160.983551
	C166.364761,161.897552 159.738541,162.643951 154.644745,163.217728
	C151.394745,156.174149 148.707504,150.350220 145.725067,143.886490
	C156.982254,129.359329 171.045364,115.977142 188.891968,106.442902
z"/>
<path fill="#DE8236" opacity="1.000000" stroke="none"
	d="
M126.507736,200.930542
	C119.410851,200.023376 112.725777,199.264175 106.140480,197.989517
	C104.581406,197.687744 103.357361,195.655090 102.339966,193.710236
	C115.659386,197.206070 128.602661,197.490799 141.561691,192.997543
	C141.067764,197.658951 138.694351,198.881027 126.507736,200.930542
z"/>
<path fill="#E18E49" opacity="1.000000" stroke="none"
	d="
M117.610229,209.703156
	C122.465492,209.759338 126.896278,209.759338 130.875580,209.759338
	C127.265465,214.043625 119.440308,214.235916 110.532967,208.866882
	C113.670258,209.234756 115.428001,209.440872 117.610229,209.703156
z"/>
<path fill="#F9EEE7" opacity="1.000000" stroke="none"
	d="
M139.013458,147.669495
	C138.257523,148.361969 137.475876,148.912842 136.735855,148.861710
	C135.566727,148.780899 134.425491,148.296280 133.272461,147.982559
	C133.805862,146.764832 134.086609,145.309738 134.944397,144.396790
	C135.786011,143.501038 137.214340,143.156540 138.706085,142.450775
	C139.020126,143.973602 139.013260,145.615753 139.013458,147.669495
z"/>
<path fill="#FAF1EC" opacity="1.000000" stroke="none"
	d="
M86.990677,151.175964
	C90.392929,152.897125 90.143875,154.507599 86.183411,155.428436
	C86.263573,153.985321 86.584595,152.765106 86.990677,151.175964
z"/>
<path fill="#FDF8F4" opacity="1.000000" stroke="none"
	d="
M117.169304,115.904259
	C118.634300,115.434113 119.884346,114.807846 120.896980,115.076477
	C123.448097,115.753235 126.946243,116.167099 128.071289,117.946663
	C129.115952,119.599045 127.582359,122.881416 127.023705,126.477776
	C130.785019,131.483154 137.616760,131.483963 143.447815,125.590889
	C144.598236,124.428238 146.598099,124.106087 148.206223,123.396324
	C147.773483,125.262985 147.961716,127.957382 146.788757,128.837326
	C143.581741,131.243195 139.984741,133.526596 136.186005,134.612213
	C133.468460,135.388855 132.122025,136.111588 131.907745,138.894409
	C131.794312,140.367416 131.230789,141.801880 130.919601,143.264206
	C129.078262,151.916641 129.078308,151.727570 120.426201,151.946274
	C116.358116,152.049103 114.297577,150.859100 113.726608,146.635269
	C113.217651,142.870255 111.986061,139.202911 110.163048,136.754807
	C105.520966,133.927155 100.760208,131.266815 96.337677,128.129654
	C95.460945,127.507736 95.882378,125.055763 95.705170,123.447723
	C97.101372,123.908485 98.854820,123.983337 99.836380,124.892006
	C106.722557,131.266876 111.127777,131.668457 117.859879,125.951553
	C116.008713,122.948349 112.822418,119.808891 117.169304,115.904259
M118.145111,143.758362
	C118.621956,144.748764 119.234657,146.632507 119.553505,146.584030
	C121.562943,146.278427 124.567276,146.137543 125.289413,144.848160
	C128.416962,139.263840 127.946968,133.727982 124.200890,132.316971
	C124.200890,135.507736 124.350189,138.437622 124.126755,141.338776
	C124.038467,142.485107 123.120354,143.567551 122.580086,144.679077
	C121.504578,144.092056 120.429077,143.505035 119.493622,142.019836
	C119.493622,138.793533 119.493622,135.567215 119.493622,132.340912
	C118.923790,132.227417 118.353958,132.113907 117.784134,132.000412
	C117.313622,133.234680 116.354607,134.518692 116.474121,135.692917
	C116.724159,138.149368 117.542755,140.547943 118.145111,143.758362
z"/>
<path fill="#FAF1EC" opacity="1.000000" stroke="none"
	d="
M117.044159,107.447571
	C113.062943,104.545219 109.498840,101.664383 105.194801,106.620094
	C104.681648,107.210953 102.909027,106.707970 101.720200,106.712013
	C101.745247,105.526123 101.337387,104.082268 101.865448,103.196136
	C105.343376,97.359840 114.976814,97.364799 118.754433,103.068115
	C120.136177,105.154221 120.229568,106.744026 117.044159,107.447571
z"/>
<path fill="#FCF4EF" opacity="1.000000" stroke="none"
	d="
M136.560974,105.069534
	C133.413055,103.392357 131.011337,103.485939 128.720062,106.134087
	C128.052292,106.905853 126.177864,106.633591 124.856552,106.839905
	C125.013329,105.419754 124.678093,103.638397 125.410461,102.640785
	C128.940872,97.831734 136.845398,97.415329 140.661041,101.906448
	C141.732178,103.167221 141.715073,105.352585 142.197144,107.113838
	C141.658676,107.408279 141.120209,107.702713 140.581741,107.997154
	C139.349533,107.088852 138.117340,106.180550 136.560974,105.069534
z"/>
<path fill="#E6A067" opacity="1.000000" stroke="none"
	d="
M119.353577,142.917999
	C120.429077,143.505035 121.504578,144.092056 122.580086,144.679077
	C123.120354,143.567551 124.038467,142.485107 124.126755,141.338776
	C124.350189,138.437622 124.200890,135.507736 124.200890,132.316971
	C127.946968,133.727982 128.416962,139.263840 125.289413,144.848160
	C124.567276,146.137543 121.562943,146.278427 119.553505,146.584030
	C119.234657,146.632507 118.621956,144.748764 118.442871,143.350296
	C118.944946,142.934158 119.149261,142.926071 119.353577,142.917999
z"/>
<path fill="#E18E49" opacity="1.000000" stroke="none"
	d="
M119.423599,142.468918
	C119.149261,142.926071 118.944946,142.934158 118.434235,142.956268
	C117.542755,140.547943 116.724159,138.149368 116.474121,135.692917
	C116.354607,134.518692 117.313622,133.234680 117.784134,132.000412
	C118.353958,132.113907 118.923790,132.227417 119.493622,132.340912
	C119.493622,135.567215 119.493622,138.793533 119.423599,142.468918
z"/>
</svg>
