<svg version="1.1" id="Layer_1" xmlns="http://www.w3.org/2000/svg" xmlns:xlink="http://www.w3.org/1999/xlink" x="0px" y="0px"
	 width="100%" viewBox="0 0 96 96" enable-background="new 0 0 96 96" xml:space="preserve">
<path fill="none" opacity="1.000000" stroke="none" 
	d="
M52.000000,97.000000 
	C34.666668,97.000000 17.833340,97.000000 1.000007,97.000000 
	C1.000005,65.000008 1.000005,33.000019 1.000002,1.000020 
	C32.999985,1.000013 64.999969,1.000013 96.999969,1.000007 
	C96.999977,32.999981 96.999977,64.999962 96.999985,96.999969 
	C82.166664,97.000000 67.333336,97.000000 52.000000,97.000000 
M9.285532,50.307110 
	C10.822596,52.554935 12.359659,54.802757 14.180151,57.659122 
	C16.082428,59.127308 17.984705,60.595493 20.180582,62.675117 
	C25.754513,67.539818 31.226131,72.528893 36.937279,77.226784 
	C40.941303,80.520416 47.378124,79.530457 50.774029,75.591278 
	C53.363266,72.587814 56.139729,69.745750 58.728550,66.741943 
	C59.980808,65.288948 60.993195,63.629211 62.691120,61.777466 
	C64.143433,60.220989 65.595741,58.664516 67.652885,56.812843 
	C69.139870,54.890884 70.626854,52.968925 72.710884,50.766205 
	C75.154907,48.215607 77.598930,45.665009 80.544426,42.912018 
	C80.743279,42.618622 80.942131,42.325230 81.610069,41.874287 
	C81.939209,41.647758 82.016525,41.354782 82.133438,40.378540 
	C84.118355,38.383881 86.134796,36.419373 88.079430,34.386181 
	C90.065414,32.309753 90.204834,29.380791 88.001854,28.218340 
	C83.919617,26.064266 82.556313,18.432934 75.685791,21.831936 
	C75.401306,21.972679 75.165413,22.243166 74.952339,22.492119 
	C70.277588,27.953983 65.609291,33.421356 60.325157,39.165844 
	C57.179588,42.763309 54.034019,46.360775 50.294846,50.215672 
	C48.823437,51.791775 47.352024,53.367878 45.265133,55.237141 
	C44.245491,56.542175 43.225853,57.847210 42.113758,59.270573 
	C40.218479,57.635738 38.664421,56.295238 36.815716,54.350994 
	C34.912960,52.885677 33.010208,51.420364 30.812180,49.343895 
	C27.890459,46.747906 25.154026,43.882725 21.959129,41.683609 
	C20.612787,40.756893 17.477951,40.377762 16.580343,41.237206 
	C13.963936,43.742355 12.066099,46.997990 9.285532,50.307110 
z"/>
<path fill="#43BF1B" opacity="1.000000" stroke="none" 
	d="
M62.114189,62.063080 
	C60.993195,63.629211 59.980808,65.288948 58.728550,66.741943 
	C56.139729,69.745750 53.363266,72.587814 50.774029,75.591278 
	C47.378124,79.530457 40.941303,80.520416 36.937279,77.226784 
	C31.226131,72.528893 25.754513,67.539818 20.447865,62.272976 
	C34.514828,61.934914 48.314510,61.998997 62.114189,62.063080 
z"/>
<path fill="#65DF4C" opacity="1.000000" stroke="none" 
	d="
M60.939754,38.887680 
	C65.609291,33.421356 70.277588,27.953983 74.952339,22.492119 
	C75.165413,22.243166 75.401306,21.972679 75.685791,21.831936 
	C82.556313,18.432934 83.919617,26.064266 88.001854,28.218340 
	C90.204834,29.380791 90.065414,32.309753 88.079430,34.386181 
	C86.134796,36.419373 84.118355,38.383881 81.530045,40.689819 
	C74.264359,40.296623 67.602058,39.592152 60.939754,38.887680 
z"/>
<path fill="#4ECA2C" opacity="1.000000" stroke="none" 
	d="
M62.402657,61.920273 
	C48.314510,61.998997 34.514828,61.934914 20.301065,61.967255 
	C17.984705,60.595493 16.082428,59.127308 14.433002,57.201706 
	C17.447718,56.496571 20.207594,56.223488 22.971888,56.006783 
	C27.683250,55.637447 32.397388,55.303532 37.110363,54.954735 
	C38.664421,56.295238 40.218479,57.635738 42.113758,59.270573 
	C43.225853,57.847210 44.245491,56.542175 45.968246,55.244476 
	C49.431278,55.501549 52.191334,55.749783 54.951080,56.001377 
	C58.983524,56.368996 63.015743,56.739029 67.048058,57.108040 
	C65.595741,58.664516 64.143433,60.220989 62.402657,61.920273 
z"/>
<path fill="#5CD740" opacity="1.000000" stroke="none" 
	d="
M60.632454,39.026764 
	C67.602058,39.592152 74.264359,40.296623 81.384338,40.998222 
	C82.016525,41.354782 81.939209,41.647758 81.190536,42.131680 
	C80.528320,42.630856 80.285637,42.872635 80.042953,43.114414 
	C77.598930,45.665009 75.154907,48.215607 71.936813,50.897766 
	C64.404648,50.672298 57.646549,50.315269 50.888451,49.958237 
	C54.034019,46.360775 57.179588,42.763309 60.632454,39.026764 
z"/>
<path fill="#5CD740" opacity="1.000000" stroke="none" 
	d="
M9.886530,49.959381 
	C12.066099,46.997990 13.963936,43.742355 16.580343,41.237206 
	C17.477951,40.377762 20.612787,40.756893 21.959129,41.683609 
	C25.154026,43.882725 27.890459,46.747906 30.564648,49.801056 
	C23.506920,50.158607 16.696726,50.058994 9.886530,49.959381 
z"/>
<path fill="#55D035" opacity="1.000000" stroke="none" 
	d="
M9.586031,50.133247 
	C16.696726,50.058994 23.506920,50.158607 30.712284,50.106636 
	C33.010208,51.420364 34.912960,52.885677 36.963039,54.652863 
	C32.397388,55.303532 27.683250,55.637447 22.971888,56.006783 
	C20.207594,56.223488 17.447718,56.496571 14.291288,56.897438 
	C12.359659,54.802757 10.822596,52.554935 9.586031,50.133247 
z"/>
<path fill="#55D035" opacity="1.000000" stroke="none" 
	d="
M50.591652,50.086956 
	C57.646549,50.315269 64.404648,50.672298 71.638290,51.038147 
	C70.626854,52.968925 69.139870,54.890884 67.350471,56.960442 
	C63.015743,56.739029 58.983524,56.368996 54.951080,56.001377 
	C52.191334,55.749783 49.431278,55.501549 46.275986,55.097897 
	C47.352024,53.367878 48.823437,51.791775 50.591652,50.086956 
z"/>
<path fill="#65DF4C" opacity="1.000000" stroke="none" 
	d="
M80.293686,43.013214 
	C80.285637,42.872635 80.528320,42.630856 80.955994,42.210457 
	C80.942131,42.325230 80.743279,42.618622 80.293686,43.013214 
z"/>
</svg>