<svg version="1.1" id="Layer_1" xmlns="http://www.w3.org/2000/svg" xmlns:xlink="http://www.w3.org/1999/xlink" x="0px" y="0px"
	 width="100%" viewBox="0 0 161 246" enable-background="new 0 0 161 246" xml:space="preserve">
<path fill="#789C74" opacity="1.000000" stroke="none"
	d="
M1.000002,192.000000
	C1.000000,128.979111 1.000000,65.958206 1.468657,2.469308
	C21.208538,2.000925 40.479794,2.022568 59.750980,1.994728
	C85.165573,1.958012 110.580116,1.882458 136.459976,1.886073
	C144.845505,1.948545 152.765732,1.948545 160.449158,1.948545
	C160.757919,3.077990 160.918549,3.391395 160.918716,3.704887
	C160.952621,65.489395 160.985443,127.273918 160.918915,189.058334
	C160.917679,190.205124 160.015244,191.747070 159.054047,192.435532
	C149.219925,199.479141 139.301208,206.405182 129.377258,213.322647
	C115.031303,223.322495 100.538872,233.119247 86.391434,243.391708
	C83.024193,245.836655 80.809311,246.215469 77.426422,243.844025
	C59.965889,231.604004 42.427963,219.472488 24.814867,207.452850
	C17.000582,202.120193 8.945681,197.140121 1.000002,192.000000
M55.499653,165.019882
	C73.232147,174.661530 90.841316,174.621170 108.069267,163.921829
	C125.381958,153.169846 133.752777,132.989578 129.950699,112.031937
	C126.538490,93.223206 110.688103,77.155312 91.532738,73.086784
	C71.751610,68.885345 51.149323,77.153816 39.897575,93.553459
	C24.282885,116.312180 29.262316,148.381531 55.499653,165.019882
z"/>
<path fill="none" opacity="1.000000" stroke="none"
	d="
M1.000002,192.468658
	C8.945681,197.140121 17.000582,202.120193 24.814867,207.452850
	C42.427963,219.472488 59.965889,231.604004 77.426422,243.844025
	C80.809311,246.215469 83.024193,245.836655 86.391434,243.391708
	C100.538872,233.119247 115.031303,223.322495 129.377258,213.322647
	C139.301208,206.405182 149.219925,199.479141 159.054047,192.435532
	C160.015244,191.747070 160.917679,190.205124 160.918915,189.058334
	C160.985443,127.273918 160.952621,65.489395 160.918716,3.704887
	C160.918549,3.391395 160.757919,3.077990 160.449158,1.948545
	C152.765732,1.948545 144.845505,1.948545 136.461060,1.680171
	C135.996826,1.411797 136.000000,1.000000 136.000000,1.000000
	C144.658890,1.000000 153.317780,1.000000 161.976669,1.000000
	C161.984436,1.158742 161.999039,1.317484 161.999039,1.476225
	C162.000015,83.236137 162.000000,164.996048 162.000000,246.877991
	C108.333496,246.877991 54.666794,246.877991 1.000046,246.883453
	C1.000000,228.905045 1.000000,210.921188 1.000002,192.468658
z"/>
<path fill="none" opacity="1.000000" stroke="none"
	d="
M135.531342,1.000000
	C136.000000,1.000000 135.996826,1.411797 135.995758,1.617699
	C110.580116,1.882458 85.165573,1.958012 59.750980,1.994728
	C40.479794,2.022568 21.208538,2.000925 1.468657,2.000650
	C2.327954,1.666667 3.655569,1.043557 4.983912,1.041998
	C48.343456,0.991123 91.703079,1.000000 135.531342,1.000000
z"/>
<path fill="#CDD0D1" opacity="1.000000" stroke="none"
	d="
M55.176788,164.852509
	C29.262316,148.381531 24.282885,116.312180 39.897575,93.553459
	C51.149323,77.153816 71.751610,68.885345 91.532738,73.086784
	C110.688103,77.155312 126.538490,93.223206 129.950699,112.031937
	C133.752777,132.989578 125.381958,153.169846 108.069267,163.921829
	C90.841316,174.621170 73.232147,174.661530 55.176788,164.852509
M114.132927,94.403084
	C100.594292,78.808907 78.336906,74.139709 61.654541,83.394058
	C41.491798,94.579117 33.440639,114.339149 40.242378,136.382660
	C45.261181,152.647903 63.645992,165.441452 77.820992,164.326157
	C77.820992,161.606827 77.828072,158.822388 77.819618,156.037979
	C77.797394,148.715805 69.525818,141.734543 62.355225,142.980484
	C55.563805,144.160568 49.868603,140.431137 48.968891,134.214645
	C47.977242,127.362930 52.211288,121.817513 58.885780,121.226295
	C65.152763,120.671165 71.157715,125.878365 70.735916,132.573303
	C70.396400,137.962311 73.651039,139.164413 77.821510,141.275726
	C77.821510,134.457565 77.693100,128.322113 77.867409,122.195251
	C77.980492,118.220306 77.518829,115.188889 73.730011,112.445404
	C68.516212,108.670090 68.727890,100.978294 73.243195,96.555054
	C77.647507,92.240547 84.716133,92.206062 89.003044,96.478180
	C93.190758,100.651451 93.068993,108.295097 88.752060,112.232948
	C83.887337,116.670479 82.615501,123.174072 85.417351,129.835068
	C89.128639,128.481033 92.102097,127.031181 92.141197,122.027153
	C92.180717,116.968460 95.829155,113.562592 100.890419,112.541862
	C105.654793,111.581001 109.378807,113.199829 112.034340,117.273346
	C114.773521,121.475182 114.579063,126.326439 111.508270,130.329971
	C108.715591,133.970932 103.533455,135.175262 98.309784,133.397308
	C94.545609,132.116119 84.634315,136.501923 84.451645,140.073196
	C84.037552,148.168610 84.321297,156.299698 84.321297,165.002365
	C99.604736,163.496979 110.768684,156.559402 118.092834,144.010040
	C127.611267,127.700958 126.112854,109.866035 114.132927,94.403084
M82.131531,100.045822
	C78.989479,99.635788 76.532990,100.916412 76.853569,104.097328
	C77.021049,105.759087 79.205215,107.601334 80.926537,108.544067
	C81.671280,108.951981 84.727402,107.232475 84.693962,106.584618
	C84.584076,104.455528 83.539978,102.374664 82.131531,100.045822
M100.515266,119.643974
	C97.678520,122.089783 97.311737,124.795258 100.559326,126.897942
	C101.761574,127.676346 104.564011,127.677177 105.455696,126.813446
	C106.575127,125.729111 107.405731,122.672264 106.697182,121.762459
	C105.598732,120.352028 103.093781,120.036972 100.515266,119.643974
M62.571114,128.851608
	C60.502869,129.065414 58.049595,128.699463 56.515816,129.718063
	C55.644245,130.296875 55.569370,133.685150 56.434105,134.810654
	C57.279404,135.910858 60.095135,136.531876 61.478737,135.969009
	C64.386559,134.786087 64.854080,132.209335 62.571114,128.851608
z"/>
<path fill="#799D75" opacity="1.000000" stroke="none"
	d="
M114.367798,94.669739
	C126.112854,109.866035 127.611267,127.700958 118.092834,144.010040
	C110.768684,156.559402 99.604736,163.496979 84.321297,165.002365
	C84.321297,156.299698 84.037552,148.168610 84.451645,140.073196
	C84.634315,136.501923 94.545609,132.116119 98.309784,133.397308
	C103.533455,135.175262 108.715591,133.970932 111.508270,130.329971
	C114.579063,126.326439 114.773521,121.475182 112.034340,117.273346
	C109.378807,113.199829 105.654793,111.581001 100.890419,112.541862
	C95.829155,113.562592 92.180717,116.968460 92.141197,122.027153
	C92.102097,127.031181 89.128639,128.481033 85.417351,129.835068
	C82.615501,123.174072 83.887337,116.670479 88.752060,112.232948
	C93.068993,108.295097 93.190758,100.651451 89.003044,96.478180
	C84.716133,92.206062 77.647507,92.240547 73.243195,96.555054
	C68.727890,100.978294 68.516212,108.670090 73.730011,112.445404
	C77.518829,115.188889 77.980492,118.220306 77.867409,122.195251
	C77.693100,128.322113 77.821510,134.457565 77.821510,141.275726
	C73.651039,139.164413 70.396400,137.962311 70.735916,132.573303
	C71.157715,125.878365 65.152763,120.671165 58.885780,121.226295
	C52.211288,121.817513 47.977242,127.362930 48.968891,134.214645
	C49.868603,140.431137 55.563805,144.160568 62.355225,142.980484
	C69.525818,141.734543 77.797394,148.715805 77.819618,156.037979
	C77.828072,158.822388 77.820992,161.606827 77.820992,164.326157
	C63.645992,165.441452 45.261181,152.647903 40.242378,136.382660
	C33.440639,114.339149 41.491798,94.579117 61.654541,83.394058
	C78.336906,74.139709 100.594292,78.808907 114.367798,94.669739
z"/>
<path fill="#80A17D" opacity="1.000000" stroke="none"
	d="
M82.493172,100.160545
	C83.539978,102.374664 84.584076,104.455528 84.693962,106.584618
	C84.727402,107.232475 81.671280,108.951981 80.926537,108.544067
	C79.205215,107.601334 77.021049,105.759087 76.853569,104.097328
	C76.532990,100.916412 78.989479,99.635788 82.493172,100.160545
z"/>
<path fill="#80A17D" opacity="1.000000" stroke="none"
	d="
M100.850204,119.450737
	C103.093781,120.036972 105.598732,120.352028 106.697182,121.762459
	C107.405731,122.672264 106.575127,125.729111 105.455696,126.813446
	C104.564011,127.677177 101.761574,127.676346 100.559326,126.897942
	C97.311737,124.795258 97.678520,122.089783 100.850204,119.450737
z"/>
<path fill="#7EA07B" opacity="1.000000" stroke="none"
	d="
M62.832909,129.153564
	C64.854080,132.209335 64.386559,134.786087 61.478737,135.969009
	C60.095135,136.531876 57.279404,135.910858 56.434105,134.810654
	C55.569370,133.685150 55.644245,130.296875 56.515816,129.718063
	C58.049595,128.699463 60.502869,129.065414 62.832909,129.153564
z"/>
</svg>
