<svg version="1.1" id="Layer_1" xmlns="http://www.w3.org/2000/svg" xmlns:xlink="http://www.w3.org/1999/xlink" x="0px" y="0px"
	 width="100%" viewBox="0 0 162 246" enable-background="new 0 0 162 246" xml:space="preserve">
<path fill="#B979A6" opacity="1.000000" stroke="none"
	d="
M1.000000,23.000000
	C1.000000,16.312355 1.000000,9.624711 1.468657,2.468060
	C55.254398,2.034475 108.571480,2.069897 161.919693,2.565709
	C161.965393,9.690128 161.983795,16.354151 161.993896,23.018187
	C162.053955,62.668453 162.112091,102.318726 162.120361,142.437180
	C162.047012,154.731995 161.318680,166.612885 162.222672,178.368240
	C162.956665,187.913284 159.607346,193.566971 151.571335,198.465286
	C140.518738,205.202347 130.285736,213.283966 119.391266,220.911835
	C116.335709,222.867432 113.582619,224.689087 110.846619,226.536087
	C101.275436,232.997360 91.710167,239.467422 81.899475,245.695084
	C70.542580,237.917328 59.428848,230.378616 48.043522,222.621429
	C44.171146,219.950516 40.570362,217.498108 36.754593,214.790665
	C26.388861,207.578781 16.292835,200.539795 6.052772,193.717010
	C3.121579,191.763992 1.878925,189.570816 1.921936,185.964569
	C2.076897,172.971924 1.892481,159.975250 1.883846,146.514862
	C1.950894,106.426811 1.980459,66.803986 1.948045,27.181202
	C1.946904,25.787210 1.329942,24.393723 1.000000,23.000000
M87.997406,107.418526
	C83.861046,100.105698 80.823418,92.143028 74.066116,86.476898
	C65.191002,79.034927 52.147495,82.545807 50.160767,93.795364
	C49.316624,98.575218 51.219601,103.970840 52.468060,108.937309
	C53.143116,111.622734 55.069283,113.993652 56.744827,117.085487
	C54.289394,117.085487 52.594971,116.848724 50.990326,117.127937
	C45.159008,118.142624 42.205246,122.854240 44.285599,127.580582
	C46.541569,132.705902 56.600956,135.610962 62.814068,132.077972
	C59.213024,131.174896 56.348835,130.559082 53.549442,129.725632
	C50.772690,128.898941 48.969826,126.705437 50.315212,124.138214
	C51.105492,122.630226 53.849281,121.878723 55.861641,121.373627
	C57.175037,121.043968 58.779339,122.065399 60.204708,121.937935
	C61.758259,121.799011 63.978958,121.455505 64.582573,120.424622
	C65.241196,119.299789 64.781387,117.088631 64.102814,115.694885
	C62.224983,111.837959 59.726513,108.276016 57.941719,104.382767
	C55.593845,99.261230 57.013065,93.401436 60.752201,90.897072
	C64.284691,88.531090 69.616966,89.676903 73.489281,94.105560
	C75.641037,96.566467 77.131668,99.595467 79.023613,102.296028
	C81.501999,105.833687 81.407562,108.538757 77.085411,110.587189
	C75.762077,111.214371 74.899376,112.813446 73.619843,114.188751
	C84.746506,121.254456 96.129601,125.171013 108.697449,125.908745
	C109.068382,118.214241 107.880447,117.251495 101.700104,115.079666
	C97.034492,113.440132 92.865341,110.387863 87.997406,107.418526
M120.219086,140.685043
	C128.416687,126.820992 132.504959,111.913177 132.070740,95.733109
	C131.950653,91.258522 129.746170,89.578445 125.795235,88.997070
	C120.756828,88.255669 115.738243,87.379555 110.433319,86.516304
	C108.298546,88.409729 108.837090,90.483589 111.443497,91.679443
	C114.516197,93.089241 117.799133,94.547745 121.092468,94.839729
	C125.091270,95.194244 126.430801,96.793129 125.970154,100.503845
	C125.522110,104.113029 125.314232,107.764656 124.650063,111.332329
	C120.276886,134.823334 107.114594,152.233566 87.518631,165.358459
	C84.386246,167.456467 82.226784,171.007080 79.066216,174.494476
	C88.365852,176.257675 110.682846,157.268433 120.219086,140.685043
M59.498581,151.000275
	C53.655331,144.118256 47.678577,137.342255 42.067566,130.275833
	C40.750069,128.616577 40.330997,126.013565 40.082211,123.779724
	C39.363991,117.330948 39.251926,110.804527 38.327293,104.391434
	C37.193924,96.530563 37.648468,95.575890 45.571224,94.564178
	C46.177429,92.541756 46.802540,90.456268 47.586189,87.841866
	C44.418278,88.282013 41.847748,88.795860 39.254623,88.966721
	C33.908024,89.319008 31.850065,90.945084 32.091286,96.179970
	C32.416763,103.243332 32.625267,110.440727 34.157269,117.296051
	C39.010826,139.014481 51.769737,155.473419 69.763039,168.180359
	C67.640900,161.953278 65.332329,155.852722 59.498581,151.000275
M102.384949,84.014145
	C101.685356,86.591942 100.985771,89.169739 99.967201,92.922905
	C97.475685,85.915054 97.055679,80.453835 101.099869,75.125580
	C101.905563,74.064056 101.796288,71.977303 101.450279,70.519638
	C101.290527,69.846581 99.369453,68.970390 98.559044,69.216011
	C97.287064,69.601532 95.409683,70.765266 95.302277,71.762451
	C94.654167,77.779984 93.966377,83.869728 94.296165,89.880203
	C94.437309,92.452599 94.225784,93.986122 92.620026,95.940208
	C89.924500,99.220459 90.339378,104.557739 93.461632,106.706650
	C99.733673,111.023445 106.893791,112.577087 114.308182,112.917458
	C117.556725,102.652237 116.349220,98.861366 107.758316,93.918404
	C104.936508,92.294823 104.370399,90.262245 105.423828,87.813751
	C106.352531,85.655167 108.235909,83.927132 109.398933,81.842308
	C110.125786,80.539360 110.587852,78.923340 110.566704,77.456490
	C110.559105,76.929787 108.596321,75.817627 107.863777,76.047852
	C106.504608,76.475014 105.048615,77.465034 104.271866,78.642250
	C103.404701,79.956512 103.248245,81.739700 102.384949,84.014145
M86.087540,126.551781
	C82.626472,125.001488 79.034256,123.687157 75.731720,121.851631
	C68.916794,118.063965 68.349800,118.220345 66.568222,126.018066
	C76.709885,132.997040 87.879616,137.578720 100.199821,138.922180
	C106.587250,139.618698 107.144028,138.837875 108.237572,132.232010
	C101.092651,130.450089 93.947731,128.668182 86.087540,126.551781
M83.997467,149.615005
	C92.802399,152.036255 95.645973,151.183060 98.965393,145.658340
	C87.779884,141.578644 76.456612,137.448715 64.830467,133.208298
	C63.299053,135.966736 63.240929,140.002472 66.570305,141.977112
	C71.750191,145.049301 77.663086,146.885590 83.997467,149.615005
M73.034790,165.362045
	C74.299011,167.317032 75.563225,169.272034 77.094444,171.639923
	C80.635658,166.027908 83.642006,161.263550 86.737251,156.358307
	C79.922714,153.847977 73.408813,151.448410 65.474747,148.525681
	C68.254768,154.673309 70.513710,159.668640 73.034790,165.362045
M90.189095,73.797401
	C88.652092,72.543922 87.288277,70.858978 85.531227,70.153694
	C83.628693,69.390022 80.731033,68.579865 79.368080,69.471855
	C75.304939,72.130989 71.781349,75.614586 67.672180,79.093422
	C70.177650,80.183952 72.207878,81.067635 74.094864,81.888962
	C76.889587,79.790733 79.501305,77.829910 81.958260,75.985275
	C84.903526,78.163528 87.498062,80.082382 90.729202,82.472061
	C90.729202,79.195198 90.729202,76.789383 90.189095,73.797401
z"/>
<path fill="none" opacity="1.000000" stroke="none"
	d="
M1.836264,146.980087
	C1.892481,159.975250 2.076897,172.971924 1.921936,185.964569
	C1.878925,189.570816 3.121579,191.763992 6.052772,193.717010
	C16.292835,200.539795 26.388861,207.578781 36.605293,215.098373
	C30.043707,225.502502 26.906382,237.692673 16.791870,245.204407
	C16.335249,245.543518 16.255363,246.389893 16.000000,247.000000
	C11.019096,247.000000 6.038194,247.000000 1.000000,247.000000
	C1.000000,213.979126 1.000000,180.958221 1.208933,147.458115
	C1.417867,146.978912 1.836264,146.980087 1.836264,146.980087
z"/>
<path fill="none" opacity="1.000000" stroke="none"
	d="
M119.701584,220.789520
	C130.285736,213.283966 140.518738,205.202347 151.571335,198.465286
	C159.607346,193.566971 162.956665,187.913284 162.222672,178.368240
	C161.318680,166.612885 162.047012,154.731995 162.327774,142.437988
	C162.585663,141.970627 163.000000,142.000000 163.000000,142.000000
	C163.000000,177.000031 163.000000,212.000046 163.000000,247.000000
	C158.922455,247.000000 154.937897,247.000000 150.563477,246.665161
	C150.580826,245.615005 150.894760,244.823059 151.409744,244.196289
	C156.229614,238.330292 156.240234,238.012177 149.434830,234.746765
	C139.564011,230.010437 129.616440,225.434082 119.701584,220.789520
z"/>
<path fill="none" opacity="1.000000" stroke="none"
	d="
M119.391273,220.911835
	C129.616440,225.434082 139.564011,230.010437 149.434830,234.746765
	C156.240234,238.012177 156.229614,238.330292 151.409744,244.196289
	C150.894760,244.823059 150.580826,245.615005 150.086807,246.665161
	C126.979103,247.000000 103.958214,247.000000 80.706093,246.814117
	C81.030792,246.396866 81.586716,246.165497 82.142639,245.934143
	C91.710167,239.467422 101.275436,232.997360 110.846619,226.536087
	C113.582619,224.689087 116.335709,222.867432 119.391273,220.911835
z"/>
<path fill="none" opacity="1.000000" stroke="none"
	d="
M81.899475,245.695068
	C81.586716,246.165497 81.030792,246.396866 80.237434,246.814117
	C61.979103,247.000000 43.958210,247.000000 25.554054,246.669037
	C32.885567,238.505371 40.600342,230.672653 48.315117,222.839920
	C59.428848,230.378616 70.542580,237.917328 81.899475,245.695068
z"/>
<path fill="none" opacity="1.000000" stroke="none"
	d="
M48.043526,222.621429
	C40.600342,230.672653 32.885567,238.505371 25.085396,246.669037
	C22.299986,247.000000 19.599974,247.000000 16.449982,247.000000
	C16.255363,246.389893 16.335249,245.543518 16.791870,245.204407
	C26.906382,237.692673 30.043707,225.502502 36.820278,215.353409
	C40.570362,217.498108 44.171146,219.950516 48.043526,222.621429
z"/>
<path fill="#FAFAFA" opacity="1.000000" stroke="none"
	d="
M161.888565,2.105319
	C108.571480,2.069897 55.254398,2.034475 1.468657,1.999527
	C2.333333,1.666667 3.666396,1.043094 5.000039,1.041848
	C57.666660,0.992650 110.333336,1.000000 162.721710,1.521932
	C162.258484,2.064350 162.073517,2.084834 161.888565,2.105319
z"/>
<path fill="#DAD4D9" opacity="1.000000" stroke="none"
	d="
M161.919693,2.565709
	C162.073517,2.084834 162.258484,2.064350 162.721710,2.021933
	C163.000000,48.354229 163.000000,94.708458 163.000000,141.531342
	C163.000000,142.000000 162.585663,141.970627 162.378265,141.969818
	C162.112091,102.318726 162.053955,62.668453 161.993896,23.018187
	C161.983795,16.354151 161.965393,9.690128 161.919693,2.565709
z"/>
<path fill="#E2DCE1" opacity="1.000000" stroke="none"
	d="
M1.883846,146.514862
	C1.836264,146.980087 1.417867,146.978912 1.208933,146.989456
	C1.000000,105.979103 1.000000,64.958206 1.000000,23.468658
	C1.329942,24.393723 1.946904,25.787210 1.948045,27.181202
	C1.980459,66.803986 1.950894,106.426811 1.883846,146.514862
z"/>
<path fill="#FFFFFF" opacity="1.000000" stroke="none"
	d="
M88.236313,107.691452
	C92.865341,110.387863 97.034492,113.440132 101.700104,115.079666
	C107.880447,117.251495 109.068382,118.214241 108.697449,125.908745
	C96.129601,125.171013 84.746506,121.254456 73.619843,114.188751
	C74.899376,112.813446 75.762077,111.214371 77.085411,110.587189
	C81.407562,108.538757 81.501999,105.833687 79.023613,102.296028
	C77.131668,99.595467 75.641037,96.566467 73.489281,94.105560
	C69.616966,89.676903 64.284691,88.531090 60.752201,90.897072
	C57.013065,93.401436 55.593845,99.261230 57.941719,104.382767
	C59.726513,108.276016 62.224983,111.837959 64.102814,115.694885
	C64.781387,117.088631 65.241196,119.299789 64.582573,120.424622
	C63.978958,121.455505 61.758259,121.799011 60.204708,121.937935
	C58.779339,122.065399 57.175037,121.043968 55.861641,121.373627
	C53.849281,121.878723 51.105492,122.630226 50.315212,124.138214
	C48.969826,126.705437 50.772690,128.898941 53.549442,129.725632
	C56.348835,130.559082 59.213024,131.174896 62.814068,132.077972
	C56.600956,135.610962 46.541569,132.705902 44.285599,127.580582
	C42.205246,122.854240 45.159008,118.142624 50.990326,117.127937
	C52.594971,116.848724 54.289394,117.085487 56.744827,117.085487
	C55.069283,113.993652 53.143116,111.622734 52.468060,108.937309
	C51.219601,103.970840 49.316624,98.575218 50.160767,93.795364
	C52.147495,82.545807 65.191002,79.034927 74.066116,86.476898
	C80.823418,92.143028 83.861046,100.105698 88.236313,107.691452
z"/>
<path fill="#FFFFFF" opacity="1.000000" stroke="none"
	d="
M120.090149,141.030457
	C110.682846,157.268433 88.365852,176.257675 79.066216,174.494476
	C82.226784,171.007080 84.386246,167.456467 87.518631,165.358459
	C107.114594,152.233566 120.276886,134.823334 124.650063,111.332329
	C125.314232,107.764656 125.522110,104.113029 125.970154,100.503845
	C126.430801,96.793129 125.091270,95.194244 121.092468,94.839729
	C117.799133,94.547745 114.516197,93.089241 111.443497,91.679443
	C108.837090,90.483589 108.298546,88.409729 110.433319,86.516304
	C115.738243,87.379555 120.756828,88.255669 125.795235,88.997070
	C129.746170,89.578445 131.950653,91.258522 132.070740,95.733109
	C132.504959,111.913177 128.416687,126.820992 120.090149,141.030457
z"/>
<path fill="#FFFFFF" opacity="1.000000" stroke="none"
	d="
M59.750648,151.252686
	C65.332329,155.852722 67.640900,161.953278 69.763039,168.180359
	C51.769737,155.473419 39.010826,139.014481 34.157269,117.296051
	C32.625267,110.440727 32.416763,103.243332 32.091286,96.179970
	C31.850065,90.945084 33.908024,89.319008 39.254623,88.966721
	C41.847748,88.795860 44.418278,88.282013 47.586189,87.841866
	C46.802540,90.456268 46.177429,92.541756 45.571224,94.564178
	C37.648468,95.575890 37.193924,96.530563 38.327293,104.391434
	C39.251926,110.804527 39.363991,117.330948 40.082211,123.779724
	C40.330997,126.013565 40.750069,128.616577 42.067566,130.275833
	C47.678577,137.342255 53.655331,144.118256 59.750648,151.252686
z"/>
<path fill="#FFFFFF" opacity="1.000000" stroke="none"
	d="
M102.583710,83.666473
	C103.248245,81.739700 103.404701,79.956512 104.271866,78.642250
	C105.048615,77.465034 106.504608,76.475014 107.863777,76.047852
	C108.596321,75.817627 110.559105,76.929787 110.566704,77.456490
	C110.587852,78.923340 110.125786,80.539360 109.398933,81.842308
	C108.235909,83.927132 106.352531,85.655167 105.423828,87.813751
	C104.370399,90.262245 104.936508,92.294823 107.758316,93.918404
	C116.349220,98.861366 117.556725,102.652237 114.308182,112.917458
	C106.893791,112.577087 99.733673,111.023445 93.461632,106.706650
	C90.339378,104.557739 89.924500,99.220459 92.620026,95.940208
	C94.225784,93.986122 94.437309,92.452599 94.296165,89.880203
	C93.966377,83.869728 94.654167,77.779984 95.302277,71.762451
	C95.409683,70.765266 97.287064,69.601532 98.559044,69.216011
	C99.369453,68.970390 101.290527,69.846581 101.450279,70.519638
	C101.796288,71.977303 101.905563,74.064056 101.099869,75.125580
	C97.055679,80.453835 97.475685,85.915054 99.967201,92.922905
	C100.985771,89.169739 101.685356,86.591942 102.583710,83.666473
M110.641647,104.188835
	C110.266899,102.498833 110.429565,100.221649 109.383942,99.264664
	C108.018822,98.015244 105.727676,97.500961 103.771889,97.307289
	C102.969505,97.227829 101.134857,99.379318 101.245735,99.548470
	C102.262672,101.099846 103.377304,102.827881 104.917473,103.724998
	C106.337051,104.551888 108.315269,104.419731 110.641647,104.188835
z"/>
<path fill="#FFFFFF" opacity="1.000000" stroke="none"
	d="
M86.445175,126.719025
	C93.947731,128.668182 101.092651,130.450089 108.239334,132.225571
	C107.144028,138.837875 106.587250,139.618698 100.199821,138.922180
	C87.879616,137.578720 76.709885,132.997040 66.568222,126.018066
	C68.349800,118.220345 68.916794,118.063965 75.731720,121.851631
	C79.034256,123.687157 82.626472,125.001488 86.445175,126.719025
z"/>
<path fill="#FFFFFF" opacity="1.000000" stroke="none"
	d="
M83.631393,149.430344
	C77.663086,146.885590 71.750191,145.049301 66.570305,141.977112
	C63.240929,140.002472 63.299053,135.966736 64.830467,133.208298
	C76.456612,137.448715 87.779884,141.578644 98.965393,145.658340
	C95.645973,151.183060 92.802399,152.036255 83.631393,149.430344
z"/>
<path fill="#FFFFFF" opacity="1.000000" stroke="none"
	d="
M72.903717,165.013000
	C70.513710,159.668640 68.254768,154.673309 65.474747,148.525681
	C73.408813,151.448410 79.922714,153.847977 86.737251,156.358307
	C83.642006,161.263550 80.635658,166.027908 77.094444,171.639923
	C75.563225,169.272034 74.299011,167.317032 72.903717,165.013000
z"/>
<path fill="#FFFFFF" opacity="1.000000" stroke="none"
	d="
M90.459152,74.090485
	C90.729202,76.789383 90.729202,79.195198 90.729202,82.472061
	C87.498062,80.082382 84.903526,78.163528 81.958260,75.985275
	C79.501305,77.829910 76.889587,79.790733 74.094864,81.888962
	C72.207878,81.067635 70.177650,80.183952 67.672180,79.093422
	C71.781349,75.614586 75.304939,72.130989 79.368080,69.471855
	C80.731033,68.579865 83.628693,69.390022 85.531227,70.153694
	C87.288277,70.858978 88.652092,72.543922 90.459152,74.090485
z"/>
<path fill="#B979A6" opacity="1.000000" stroke="none"
	d="
M110.344536,104.449425
	C108.315269,104.419731 106.337051,104.551888 104.917473,103.724998
	C103.377304,102.827881 102.262672,101.099846 101.245735,99.548470
	C101.134857,99.379318 102.969505,97.227829 103.771889,97.307289
	C105.727676,97.500961 108.018822,98.015244 109.383942,99.264664
	C110.429565,100.221649 110.266899,102.498833 110.344536,104.449425
z"/>
</svg>
