<svg version="1.1" id="Layer_1" xmlns="http://www.w3.org/2000/svg" xmlns:xlink="http://www.w3.org/1999/xlink" x="0px" y="0px"
	 width="100%" viewBox="0 0 96 96" enable-background="new 0 0 96 96" xml:space="preserve">
<path fill="#000000" opacity="1.000000" stroke="none" 
	d="
M62.000000,97.000000 
	C41.333332,97.000000 21.166666,97.000000 1.000000,97.000000 
	C1.000000,65.000000 1.000000,33.000000 1.000000,1.000000 
	C33.000000,1.000000 65.000000,1.000000 97.000000,1.000000 
	C97.000000,33.000000 97.000000,65.000000 97.000000,97.000000 
	C85.500000,97.000000 74.000000,97.000000 62.000000,97.000000 
M54.372677,31.158403 
	C53.232609,32.406464 52.092545,33.654526 50.365326,35.148823 
	C49.280071,35.085209 48.194813,35.021595 46.839848,34.362644 
	C45.266697,32.897182 43.693550,31.431717 41.837620,29.356815 
	C39.571842,27.205076 37.306065,25.053337 34.769268,22.294090 
	C32.669807,20.184372 30.720425,17.887192 28.411718,16.038832 
	C27.131443,15.013842 24.321943,13.772559 23.791319,14.282581 
	C20.339575,17.600307 17.324068,21.371897 14.212959,25.662844 
	C15.777890,27.453463 17.342821,29.244083 19.167547,31.634447 
	C20.742025,33.103069 22.316502,34.571690 24.168255,36.653343 
	C26.764885,39.138432 29.361515,41.623520 32.215263,44.702801 
	C33.530514,46.133625 34.845768,47.564453 35.860203,49.604694 
	C33.532150,52.055210 31.204096,54.505722 28.294020,57.211468 
	C27.153399,58.459267 26.012775,59.707069 24.295288,61.197025 
	C23.178324,62.421116 22.061361,63.645203 20.342428,65.173897 
	C18.284023,67.781372 16.225620,70.388847 14.054739,73.692719 
	C16.900988,76.808685 19.628963,80.049355 22.683022,82.946243 
	C23.379787,83.607147 25.725540,83.645920 26.419188,83.004761 
	C29.816618,79.864410 32.912159,76.397469 36.812431,72.976189 
	C38.494358,71.455414 40.176281,69.934631 42.355797,68.062027 
	C43.937088,66.387184 45.518379,64.712334 47.702236,62.769356 
	C49.453510,63.562744 51.204784,64.356133 53.212543,65.726143 
	C54.458241,66.852470 55.703938,67.978790 57.201622,69.680939 
	C58.429665,70.799179 59.657707,71.917419 61.186241,73.639511 
	C62.121918,74.587448 63.053017,75.539948 63.993977,76.482605 
	C73.609940,86.115906 73.610321,86.115410 82.458496,76.045303 
	C82.897255,75.545944 83.666916,75.071999 83.703918,74.545555 
	C83.763245,73.701256 83.338295,72.822929 82.998863,71.268227 
	C81.143997,69.228065 79.289124,67.187904 77.079247,64.660965 
	C75.737732,63.403904 74.396225,62.146839 72.790359,60.295563 
	C71.233345,59.183445 69.676338,58.071331 68.007706,56.264744 
	C65.952499,54.177155 63.897289,52.089569 61.990696,49.313354 
	C64.032425,46.890289 66.074150,44.467220 68.713448,41.767853 
	C69.824524,40.543056 70.935608,39.318260 72.639053,37.836643 
	C73.789948,36.571606 74.940834,35.306568 76.672752,33.796223 
	C77.793053,32.563648 78.913345,31.331072 80.670609,29.800770 
	C83.753143,26.904963 85.279633,24.375813 81.233185,20.565384 
	C72.772415,12.598103 72.956940,12.386159 64.290474,21.202976 
	C62.795807,22.723579 61.399273,24.340647 59.359043,26.173138 
	C57.892635,27.749237 56.426228,29.325336 54.372677,31.158403 
z"/>
<path fill="#DF2C29" opacity="1.000000" stroke="none" 
	d="
M68.119324,56.959213 
	C69.676338,58.071331 71.233345,59.183445 72.670677,60.894592 
	C68.050926,61.996044 63.527149,62.350521 59.061226,63.066074 
	C56.968620,63.401371 54.987633,64.433311 52.956059,65.149521 
	C51.204784,64.356133 49.453510,63.562744 46.926178,62.896126 
	C43.680225,63.015163 41.185848,63.226067 38.745697,62.952789 
	C34.104805,62.433044 29.494917,61.636475 24.872154,60.954865 
	C26.012775,59.707069 27.153399,58.459267 29.061598,57.092735 
	C42.592560,56.969074 55.355942,56.964146 68.119324,56.959213 
z"/>
<path fill="#EC453F" opacity="1.000000" stroke="none" 
	d="
M72.046684,38.093460 
	C70.935608,39.318260 69.824524,40.543056 67.938568,41.898129 
	C57.526119,42.020519 47.885876,41.890022 38.253094,42.100632 
	C36.141155,42.146801 34.055763,43.407322 31.958145,44.108612 
	C29.361515,41.623520 26.764885,39.138432 24.504978,36.339020 
	C32.264320,35.669125 39.686939,35.313553 47.109558,34.957977 
	C48.194813,35.021595 49.280071,35.085209 50.992802,35.233898 
	C52.738499,35.582771 53.843628,35.952869 54.977146,36.092445 
	C60.662910,36.792595 66.356102,37.432430 72.046684,38.093460 
z"/>
<path fill="#E73B36" opacity="1.000000" stroke="none" 
	d="
M32.086704,44.405708 
	C34.055763,43.407322 36.141155,42.146801 38.253094,42.100632 
	C47.885876,41.890022 57.526119,42.020519 67.639778,42.036278 
	C66.074150,44.467220 64.032425,46.890289 61.457848,49.657902 
	C52.670341,49.666725 44.415680,49.331001 36.161018,48.995277 
	C34.845768,47.564453 33.530514,46.133625 32.086704,44.405708 
z"/>
<path fill="#E3322E" opacity="1.000000" stroke="none" 
	d="
M36.010612,49.299988 
	C44.415680,49.331001 52.670341,49.666725 61.383541,50.002216 
	C63.897289,52.089569 65.952499,54.177155 68.063515,56.611977 
	C55.355942,56.964146 42.592560,56.969074 29.352608,56.965118 
	C31.204096,54.505722 33.532150,52.055210 36.010612,49.299988 
z"/>
<path fill="#F4564E" opacity="1.000000" stroke="none" 
	d="
M59.957409,25.913153 
	C61.399273,24.340647 62.795807,22.723579 64.290474,21.202976 
	C72.956940,12.386159 72.772415,12.598103 81.233185,20.565384 
	C85.279633,24.375813 83.753143,26.904963 80.157471,29.611485 
	C75.499352,28.946320 71.331093,28.612907 67.218117,27.941095 
	C64.753227,27.538483 62.374733,26.606955 59.957409,25.913153 
z"/>
<path fill="#D81C1B" opacity="1.000000" stroke="none" 
	d="
M83.118011,71.958984 
	C83.338295,72.822929 83.763245,73.701256 83.703918,74.545555 
	C83.666916,75.071999 82.897255,75.545944 82.458496,76.045303 
	C73.610321,86.115410 73.609940,86.115906 63.993977,76.482605 
	C63.053017,75.539948 62.121918,74.587448 61.451263,73.244247 
	C68.850197,72.552315 75.984108,72.255646 83.118011,71.958984 
z"/>
<path fill="#D81C1B" opacity="1.000000" stroke="none" 
	d="
M36.114399,73.045952 
	C32.912159,76.397469 29.816618,79.864410 26.419188,83.004761 
	C25.725540,83.645920 23.379787,83.607147 22.683022,82.946243 
	C19.628963,80.049355 16.900988,76.808685 14.568802,73.345215 
	C22.093376,73.013786 29.103888,73.029869 36.114399,73.045952 
z"/>
<path fill="#F4564E" opacity="1.000000" stroke="none" 
	d="
M14.165787,24.994942 
	C17.324068,21.371897 20.339575,17.600307 23.791319,14.282581 
	C24.321943,13.772559 27.131443,15.013842 28.411718,16.038832 
	C30.720425,17.887192 32.669807,20.184372 34.707878,22.934908 
	C32.965675,24.049572 31.297077,24.872673 29.601768,24.931959 
	C24.461990,25.111694 19.311874,24.995718 14.165787,24.994942 
z"/>
<path fill="#F14F49" opacity="1.000000" stroke="none" 
	d="
M14.189373,25.328892 
	C19.311874,24.995718 24.461990,25.111694 29.601768,24.931959 
	C31.297077,24.872673 32.965675,24.049572 34.843388,23.238663 
	C37.306065,25.053337 39.571842,27.205076 41.563183,29.753872 
	C33.828415,30.445518 26.368082,30.740110 18.907751,31.034702 
	C17.342821,29.244083 15.777890,27.453463 14.189373,25.328892 
z"/>
<path fill="#DB2320" opacity="1.000000" stroke="none" 
	d="
M36.463417,73.011070 
	C29.103888,73.029869 22.093376,73.013786 14.625040,72.997017 
	C16.225620,70.388847 18.284023,67.781372 20.840435,65.361015 
	C23.488060,66.032089 25.615753,66.690300 27.791811,66.964096 
	C32.467392,67.552383 37.167900,67.942566 41.858204,68.413849 
	C40.176281,69.934631 38.494358,71.455414 36.463417,73.011070 
z"/>
<path fill="#EE4A43" opacity="1.000000" stroke="none" 
	d="
M19.037649,31.334576 
	C26.368082,30.740110 33.828415,30.445518 41.704575,30.058590 
	C43.693550,31.431717 45.266697,32.897182 46.974701,34.660313 
	C39.686939,35.313553 32.264320,35.669125 24.366341,36.032501 
	C22.316502,34.571690 20.742025,33.103069 19.037649,31.334576 
z"/>
<path fill="#DB2320" opacity="1.000000" stroke="none" 
	d="
M83.058441,71.613602 
	C75.984108,72.255646 68.850197,72.552315 61.301018,72.942314 
	C59.657707,71.917419 58.429665,70.799179 57.327240,69.091431 
	C61.464851,68.001312 65.493248,67.603180 69.483086,66.964241 
	C72.161751,66.535278 74.785774,65.765198 77.434250,65.147743 
	C79.289124,67.187904 81.143997,69.228065 83.058441,71.613602 
z"/>
<path fill="#F14F49" opacity="1.000000" stroke="none" 
	d="
M59.658226,26.043144 
	C62.374733,26.606955 64.753227,27.538483 67.218117,27.941095 
	C71.331093,28.612907 75.499352,28.946320 79.838989,29.760347 
	C78.913345,31.331072 77.793053,32.563648 75.989677,33.762306 
	C70.589294,33.483456 65.853111,33.415062 61.163208,32.913731 
	C59.047882,32.687607 57.024769,31.598824 54.959820,30.901436 
	C56.426228,29.325336 57.892635,27.749237 59.658226,26.043144 
z"/>
<path fill="#DE2826" opacity="1.000000" stroke="none" 
	d="
M42.107002,68.237938 
	C37.167900,67.942566 32.467392,67.552383 27.791811,66.964096 
	C25.615753,66.690300 23.488060,66.032089 21.141420,65.208710 
	C22.061361,63.645203 23.178324,62.421116 24.583721,61.075943 
	C29.494917,61.636475 34.104805,62.433044 38.745697,62.952789 
	C41.185848,63.226067 43.680225,63.015163 46.624893,63.030193 
	C45.518379,64.712334 43.937088,66.387184 42.107002,68.237938 
z"/>
<path fill="#DE2826" opacity="1.000000" stroke="none" 
	d="
M77.256744,64.904358 
	C74.785774,65.765198 72.161751,66.535278 69.483086,66.964241 
	C65.493248,67.603180 61.464851,68.001312 57.201248,68.803513 
	C55.703938,67.978790 54.458241,66.852470 53.084301,65.437836 
	C54.987633,64.433311 56.968620,63.401371 59.061226,63.066074 
	C63.527149,62.350521 68.050926,61.996044 72.802856,61.191704 
	C74.396225,62.146839 75.737732,63.403904 77.256744,64.904358 
z"/>
<path fill="#EE4A43" opacity="1.000000" stroke="none" 
	d="
M54.666248,31.029921 
	C57.024769,31.598824 59.047882,32.687607 61.163208,32.913731 
	C65.853111,33.415062 70.589294,33.483456 75.699158,33.884960 
	C74.940834,35.306568 73.789948,36.571606 72.342865,37.965050 
	C66.356102,37.432430 60.662910,36.792595 54.977146,36.092445 
	C53.843628,35.952869 52.738499,35.582771 51.286377,35.110779 
	C52.092545,33.654526 53.232609,32.406464 54.666248,31.029921 
z"/>
</svg>